<?xml version="1.0" encoding="UTF-8" standalone="no"?>
<svg
   xmlns:dc="http://purl.org/dc/elements/1.1/"
   xmlns:cc="http://creativecommons.org/ns#"
   xmlns:rdf="http://www.w3.org/1999/02/22-rdf-syntax-ns#"
   xmlns:svg="http://www.w3.org/2000/svg"
   xmlns="http://www.w3.org/2000/svg"
   xmlns:sodipodi="http://sodipodi.sourceforge.net/DTD/sodipodi-0.dtd"
   xmlns:inkscape="http://www.inkscape.org/namespaces/inkscape"
   version="1.1"
   id="Layer_1"
   x="0px"
   y="0px"
   width="1066.6666"
   height="1092.2667"
   viewBox="0 0 1000 1024"
   enable-background="new 0 0 512 512"
   xml:space="preserve"
   inkscape:version="0.92.1 r15371"
   sodipodi:docname="a-a.svg"><title
   id="title3743">Sinai 357</title><metadata
   id="metadata72"><rdf:RDF><cc:Work
       rdf:about=""><dc:format>image/svg+xml</dc:format><dc:type
         rdf:resource="http://purl.org/dc/dcmitype/StillImage" /><dc:title>Sinai 357</dc:title><dc:date>2017</dc:date><dc:creator><cc:Agent><dc:title>Celeste Claire Horner</dc:title></cc:Agent></dc:creator><dc:publisher><cc:Agent><dc:title>beitdina.net</dc:title></cc:Agent></dc:publisher></cc:Work></rdf:RDF></metadata><defs
   id="defs70" /><sodipodi:namedview
   pagecolor="#ffffff"
   bordercolor="#666666"
   borderopacity="1"
   objecttolerance="10"
   gridtolerance="10"
   guidetolerance="10"
   inkscape:pageopacity="0"
   inkscape:pageshadow="2"
   inkscape:window-width="1152"
   inkscape:window-height="814"
   id="namedview68"
   showgrid="false"
   inkscape:zoom="0.090114682"
   inkscape:cx="826.55041"
   inkscape:cy="119.86341"
   inkscape:window-x="-8"
   inkscape:window-y="-8"
   inkscape:window-maximized="1"
   inkscape:current-layer="Layer_1" />
   
	<g
   id="Grid"
   transform="matrix(1.9502951,0,0,1.9942504,5.1344581,-0.77012434)">
		<rect
   x="0"
   stroke-miterlimit="10"
   width="512"
   height="512"
   id="rect4"
   y="0"
   style="fill:none;stroke:#a9ccdb;stroke-miterlimit:10" />
		<line
   stroke-miterlimit="10"
   x1="0"
   y1="32"
   x2="512"
   y2="32"
   id="line6"
   style="fill:none;stroke:#a9ccdb;stroke-miterlimit:10" />
		<line
   stroke-miterlimit="10"
   x1="0"
   y1="64"
   x2="512"
   y2="64"
   id="line8"
   style="fill:none;stroke:#a9ccdb;stroke-miterlimit:10" />
		<line
   stroke-miterlimit="10"
   x1="0"
   y1="96"
   x2="512"
   y2="96"
   id="line10"
   style="fill:none;stroke:#a9ccdb;stroke-miterlimit:10" />
		<line
   stroke-miterlimit="10"
   x1="0"
   y1="128"
   x2="512"
   y2="128"
   id="line12"
   style="fill:none;stroke:#a9ccdb;stroke-miterlimit:10" />
		<line
   stroke-miterlimit="10"
   x1="0"
   y1="160"
   x2="512"
   y2="160"
   id="line14"
   style="fill:none;stroke:#a9ccdb;stroke-miterlimit:10" />
		<line
   stroke-miterlimit="10"
   x1="0"
   y1="192"
   x2="512"
   y2="192"
   id="line16"
   style="fill:none;stroke:#a9ccdb;stroke-miterlimit:10" />
		<line
   stroke-miterlimit="10"
   x1="0"
   y1="224"
   x2="512"
   y2="224"
   id="line18"
   style="fill:none;stroke:#a9ccdb;stroke-miterlimit:10" />
		<line
   stroke-miterlimit="10"
   x1="0"
   y1="256"
   x2="512"
   y2="256"
   id="line20"
   style="fill:none;stroke:#a9ccdb;stroke-miterlimit:10" />
		<line
   stroke-miterlimit="10"
   x1="0"
   y1="288"
   x2="512"
   y2="288"
   id="line22"
   style="fill:none;stroke:#a9ccdb;stroke-miterlimit:10" />
		<line
   stroke-miterlimit="10"
   x1="0"
   y1="320"
   x2="512"
   y2="320"
   id="line24"
   style="fill:none;stroke:#a9ccdb;stroke-miterlimit:10" />
		<line
   stroke-miterlimit="10"
   x1="0"
   y1="352"
   x2="512"
   y2="352"
   id="line26"
   style="fill:none;stroke:#a9ccdb;stroke-miterlimit:10" />
		<line
   stroke-miterlimit="10"
   x1="0"
   y1="384"
   x2="512"
   y2="384"
   id="line28"
   style="fill:none;stroke:#a9ccdb;stroke-miterlimit:10" />
		<line
   stroke-miterlimit="10"
   x1="0"
   y1="416"
   x2="512"
   y2="416"
   id="line30"
   style="fill:none;stroke:#a9ccdb;stroke-miterlimit:10" />
		<line
   stroke-miterlimit="10"
   x1="0"
   y1="448"
   x2="512"
   y2="448"
   id="line32"
   style="fill:none;stroke:#ff0000;stroke-miterlimit:10" />
		<line
   stroke-miterlimit="10"
   x1="0"
   y1="480"
   x2="512"
   y2="480"
   id="line34"
   style="fill:none;stroke:#a9ccdb;stroke-miterlimit:10" />
		<line
   stroke-miterlimit="10"
   x1="32"
   y1="0"
   x2="32"
   y2="512"
   id="line36"
   style="fill:none;stroke:#a9ccdb;stroke-miterlimit:10" />
		<line
   stroke-miterlimit="10"
   x1="64"
   y1="0"
   x2="64"
   y2="512"
   id="line38"
   style="fill:none;stroke:#a9ccdb;stroke-miterlimit:10" />
		<line
   stroke-miterlimit="10"
   x1="96"
   y1="0"
   x2="96"
   y2="512"
   id="line40"
   style="fill:none;stroke:#a9ccdb;stroke-miterlimit:10" />
		<line
   stroke-miterlimit="10"
   x1="128"
   y1="0"
   x2="128"
   y2="512"
   id="line42"
   style="fill:none;stroke:#a9ccdb;stroke-miterlimit:10" />
		<line
   stroke-miterlimit="10"
   x1="160"
   y1="0"
   x2="160"
   y2="512"
   id="line44"
   style="fill:none;stroke:#a9ccdb;stroke-miterlimit:10" />
		<line
   stroke-miterlimit="10"
   x1="192"
   y1="0"
   x2="192"
   y2="512"
   id="line46"
   style="fill:none;stroke:#a9ccdb;stroke-miterlimit:10" />
		<line
   stroke-miterlimit="10"
   x1="224"
   y1="0"
   x2="224"
   y2="512"
   id="line48"
   style="fill:none;stroke:#a9ccdb;stroke-miterlimit:10" />
		<line
   stroke-miterlimit="10"
   x1="256"
   y1="0"
   x2="256"
   y2="512"
   id="line50"
   style="fill:none;stroke:#a9ccdb;stroke-miterlimit:10" />
		<line
   stroke-miterlimit="10"
   x1="288"
   y1="0"
   x2="288"
   y2="512"
   id="line52"
   style="fill:none;stroke:#a9ccdb;stroke-miterlimit:10" />
		<line
   stroke-miterlimit="10"
   x1="320"
   y1="0"
   x2="320"
   y2="512"
   id="line54"
   style="fill:none;stroke:#a9ccdb;stroke-miterlimit:10" />
		<line
   stroke-miterlimit="10"
   x1="352"
   y1="0"
   x2="352"
   y2="512"
   id="line56"
   style="fill:none;stroke:#a9ccdb;stroke-miterlimit:10" />
		<line
   stroke-miterlimit="10"
   x1="384"
   y1="0"
   x2="384"
   y2="512"
   id="line58"
   style="fill:none;stroke:#a9ccdb;stroke-miterlimit:10" />
		<line
   stroke-miterlimit="10"
   x1="416"
   y1="0"
   x2="416"
   y2="512"
   id="line60"
   style="fill:none;stroke:#a9ccdb;stroke-miterlimit:10" />
		<line
   stroke-miterlimit="10"
   x1="448"
   y1="0"
   x2="448"
   y2="512"
   id="line62"
   style="fill:none;stroke:#a9ccdb;stroke-miterlimit:10" />
		<line
   stroke-miterlimit="10"
   x1="480"
   y1="0"
   x2="480"
   y2="512"
   id="line64"
   style="fill:none;stroke:#a9ccdb;stroke-miterlimit:10" />
	</g>
	

    
    <path
   glyph-name="a"
   unicode="a"
   horiz-adv-x="1159"
   d="m 179.594,260.807 c 42.8594,63.5107 112.834,118.842 167.384,173.053 7.77734,7.71777 18.0068,11.6289 28.4189,13.0576 8.75391,1.39062 16.0342,0.67578 22.8652,-0.80957 9.16602,-1.25098 22.0381,-8.72656 30.1465,-5.02246 2.3457,-1.74707 51.0137,-71.3467 41.2998,-68.8701 -28.5977,3.34961 -63.6504,4.25195 -75.8994,-6.32227 -38.1787,-32.958 -125.54,-67.6826 -141.514,-124.342 -11.6895,-42.7412 -54.9277,-66.8164 -47.4502,-117.168 13.8027,-71.3047 96.3145,-40.8389 104.367,-42.4258 4.83789,-0.95312 119.668,33.2236 166.807,48.8613 7.83301,0.875 13.7793,3.72266 18.752,7.48926 8.48438,6.42773 14.1318,15.5312 21.4824,22.0723 8.91309,7.86133 21.4248,17.1377 40.7227,30.4609 3.43848,2.39453 -1.00684,13.3682 -3.68555,22.4072 -0.39063,3.7334 -0.88477,7.07812 -1.46973,10.1348 -2.44629,12.7842 -6.48828,20.5537 -11.2637,30.8174 -29.7852,63.9121 -78.3076,123.028 -112.148,186.885 -3.41309,6.43945 -0.12109,22.1865 -3.48828,31.085 -7.67383,20.2734 -13.8838,42.5684 -20.2666,51.8584 -2.77148,4.03418 -11.3184,42.8652 -13.7734,45.5518 -8.21094,8.98438 -19.5615,20.7988 -28.5898,28.4111 -7.42188,6.25781 -12.5049,8.71777 -19.5889,12.6621 -7.13672,3.97363 -8.57227,4.05859 -23.1572,1.38281 -16.8799,-3.09766 -23.13616,-6.6174 -37.44766,-23.85178 -54.89145,-74.39817 -24.42598,-49.63055 -78.60034,-129.08509 -25.9141,-37.8047 -43.5664,-53.918 -61.8818,-56.4844 -10.4395,-1.46289 -23.1797,3.60742 -27.1201,10.7949 -0.98926,1.80469 -2.33496,3.60352 -2.99023,3.99707 -1.47266,0.88575 -1.53418,15.6768 -0.0693,16.6543 0.56835,0.37989 1.99414,3.39941 3.16895,6.71094 2.58594,7.29004 28.0781,56.5977 47.7412,92.3438 30.77157,60.77391 11.0428,8.10301 38.39144,67.05149 7.02051,15.2754 9.67383,23.5381 16.877,52.5488 3.54492,14.2783 11.53558,31.92018 13.26117,36.95728 4.16992,12.1777 5.46777,21.7393 5.46777,40.2852 0,20.0234 -2.30762,36.3496 -6.94824,49.1445 -5.22266,14.4043 -6.34668,20.4766 -6.41309,34.6504 l -0.0576,12.5762 3.75684,5.82617 c 19.8125,30.7217 56.0996,45.8271 90.5371,37.6875 10.0586,-2.37695 27.2539,-9.73633 37.9404,-16.2363 35.7109,-21.7236 82.877,-67.666 122.406,-119.231 29.3418,-50.5332 57.1191,-99.54 83.7754,-147.334 38.8926,-70.1582 76.2305,-138.084 111.751,-203.956 15.9238,-29.5654 30.9268,-58.3545 43.3291,-85.1035 13.4619,-29.0537 23.4502,-57.6445 27.7812,-79.5273 3.09863,-15.6553 3.88672,-37.8213 1.75098,-49.2383 -3.96094,-21.1699 -17.3076,-36.8555 -39.9248,-46.9209 -20.3262,-8.87012 -37.376,-5.95703 -53.959,-2.47559 -8.77051,1.8418 -17.4111,3.84277 -26.3369,4.34277 -8.90527,0.21192 -17.1699,-1.9375 -26.0068,-7.05664 -7.83594,-4.54004 -16.123,-11.415 -25.708,-21.0527 -9.20996,-8.70996 -21.2822,-14.6855 -37.999,-20.8838 -32.5088,-11.9785 -69.0674,-9.19043 -102.593,-23.3994 -39.0186,-17.1143 -76.1621,-28.7744 -109.424,-35.7705 -40.623,-8.5439499 -118.218,-5.80957 -151.139,9.89844 -24.6602,11.7676 -39.3213,31.501 -45.9131,55.4658 -5.83301,24.7598 -7.57129,57.7295 -0.97461,83.1787 8.61914,33.2539 44.24828,51.42187 53.6201,96.2637 z"
   id="path38"
   inkscape:connector-curvature="0"
   sodipodi:nodetypes="cccccccccccccccccccccccccccccccccccsccccccccccccccccccccccccc" />


</svg>