<?xml version="1.0" encoding="UTF-8" standalone="no"?>
<svg
   xmlns:dc="http://purl.org/dc/elements/1.1/"
   xmlns:cc="http://creativecommons.org/ns#"
   xmlns:rdf="http://www.w3.org/1999/02/22-rdf-syntax-ns#"
   xmlns:svg="http://www.w3.org/2000/svg"
   xmlns="http://www.w3.org/2000/svg"
   xmlns:sodipodi="http://sodipodi.sourceforge.net/DTD/sodipodi-0.dtd"
   xmlns:inkscape="http://www.inkscape.org/namespaces/inkscape"
   version="1.1"
   id="Layer_1"
   x="0px"
   y="0px"
   width="1066.6666"
   height="1092.2667"
   viewBox="0 0 1000 1024"
   enable-background="new 0 0 512 512"
   xml:space="preserve"
   inkscape:version="0.92.1 r15371"
   sodipodi:docname="a-a.svg"><title
   id="title3743">Sinai 357</title><metadata
   id="metadata72"><rdf:RDF><cc:Work
       rdf:about=""><dc:format>image/svg+xml</dc:format><dc:type
         rdf:resource="http://purl.org/dc/dcmitype/StillImage" /><dc:title>Sinai 357</dc:title><dc:date>2017</dc:date><dc:creator><cc:Agent><dc:title>Celeste Claire Horner</dc:title></cc:Agent></dc:creator><dc:publisher><cc:Agent><dc:title>beitdina.net</dc:title></cc:Agent></dc:publisher></cc:Work></rdf:RDF></metadata><defs
   id="defs70" /><sodipodi:namedview
   pagecolor="#ffffff"
   bordercolor="#666666"
   borderopacity="1"
   objecttolerance="10"
   gridtolerance="10"
   guidetolerance="10"
   inkscape:pageopacity="0"
   inkscape:pageshadow="2"
   inkscape:window-width="1152"
   inkscape:window-height="814"
   id="namedview68"
   showgrid="false"
   inkscape:zoom="0.50976562"
   inkscape:cx="293.94436"
   inkscape:cy="943.03369"
   inkscape:window-x="-8"
   inkscape:window-y="-8"
   inkscape:window-maximized="1"
   inkscape:current-layer="Layer_1" />
   
	<g
   id="Grid"
   transform="matrix(1.9502951,0,0,1.9942504,5.1344581,-0.77012434)">
		<rect
   x="0"
   stroke-miterlimit="10"
   width="512"
   height="512"
   id="rect4"
   y="0"
   style="fill:none;stroke:#a9ccdb;stroke-miterlimit:10" />
		<line
   stroke-miterlimit="10"
   x1="0"
   y1="32"
   x2="512"
   y2="32"
   id="line6"
   style="fill:none;stroke:#a9ccdb;stroke-miterlimit:10" />
		<line
   stroke-miterlimit="10"
   x1="0"
   y1="64"
   x2="512"
   y2="64"
   id="line8"
   style="fill:none;stroke:#a9ccdb;stroke-miterlimit:10" />
		<line
   stroke-miterlimit="10"
   x1="0"
   y1="96"
   x2="512"
   y2="96"
   id="line10"
   style="fill:none;stroke:#a9ccdb;stroke-miterlimit:10" />
		<line
   stroke-miterlimit="10"
   x1="0"
   y1="128"
   x2="512"
   y2="128"
   id="line12"
   style="fill:none;stroke:#a9ccdb;stroke-miterlimit:10" />
		<line
   stroke-miterlimit="10"
   x1="0"
   y1="160"
   x2="512"
   y2="160"
   id="line14"
   style="fill:none;stroke:#a9ccdb;stroke-miterlimit:10" />
		<line
   stroke-miterlimit="10"
   x1="0"
   y1="192"
   x2="512"
   y2="192"
   id="line16"
   style="fill:none;stroke:#a9ccdb;stroke-miterlimit:10" />
		<line
   stroke-miterlimit="10"
   x1="0"
   y1="224"
   x2="512"
   y2="224"
   id="line18"
   style="fill:none;stroke:#a9ccdb;stroke-miterlimit:10" />
		<line
   stroke-miterlimit="10"
   x1="0"
   y1="256"
   x2="512"
   y2="256"
   id="line20"
   style="fill:none;stroke:#a9ccdb;stroke-miterlimit:10" />
		<line
   stroke-miterlimit="10"
   x1="0"
   y1="288"
   x2="512"
   y2="288"
   id="line22"
   style="fill:none;stroke:#a9ccdb;stroke-miterlimit:10" />
		<line
   stroke-miterlimit="10"
   x1="0"
   y1="320"
   x2="512"
   y2="320"
   id="line24"
   style="fill:none;stroke:#a9ccdb;stroke-miterlimit:10" />
		<line
   stroke-miterlimit="10"
   x1="0"
   y1="352"
   x2="512"
   y2="352"
   id="line26"
   style="fill:none;stroke:#a9ccdb;stroke-miterlimit:10" />
		<line
   stroke-miterlimit="10"
   x1="0"
   y1="384"
   x2="512"
   y2="384"
   id="line28"
   style="fill:none;stroke:#a9ccdb;stroke-miterlimit:10" />
		<line
   stroke-miterlimit="10"
   x1="0"
   y1="416"
   x2="512"
   y2="416"
   id="line30"
   style="fill:none;stroke:#a9ccdb;stroke-miterlimit:10" />
		<line
   stroke-miterlimit="10"
   x1="0"
   y1="448"
   x2="512"
   y2="448"
   id="line32"
   style="fill:none;stroke:#ff0000;stroke-miterlimit:10" />
		<line
   stroke-miterlimit="10"
   x1="0"
   y1="480"
   x2="512"
   y2="480"
   id="line34"
   style="fill:none;stroke:#a9ccdb;stroke-miterlimit:10" />
		<line
   stroke-miterlimit="10"
   x1="32"
   y1="0"
   x2="32"
   y2="512"
   id="line36"
   style="fill:none;stroke:#a9ccdb;stroke-miterlimit:10" />
		<line
   stroke-miterlimit="10"
   x1="64"
   y1="0"
   x2="64"
   y2="512"
   id="line38"
   style="fill:none;stroke:#a9ccdb;stroke-miterlimit:10" />
		<line
   stroke-miterlimit="10"
   x1="96"
   y1="0"
   x2="96"
   y2="512"
   id="line40"
   style="fill:none;stroke:#a9ccdb;stroke-miterlimit:10" />
		<line
   stroke-miterlimit="10"
   x1="128"
   y1="0"
   x2="128"
   y2="512"
   id="line42"
   style="fill:none;stroke:#a9ccdb;stroke-miterlimit:10" />
		<line
   stroke-miterlimit="10"
   x1="160"
   y1="0"
   x2="160"
   y2="512"
   id="line44"
   style="fill:none;stroke:#a9ccdb;stroke-miterlimit:10" />
		<line
   stroke-miterlimit="10"
   x1="192"
   y1="0"
   x2="192"
   y2="512"
   id="line46"
   style="fill:none;stroke:#a9ccdb;stroke-miterlimit:10" />
		<line
   stroke-miterlimit="10"
   x1="224"
   y1="0"
   x2="224"
   y2="512"
   id="line48"
   style="fill:none;stroke:#a9ccdb;stroke-miterlimit:10" />
		<line
   stroke-miterlimit="10"
   x1="256"
   y1="0"
   x2="256"
   y2="512"
   id="line50"
   style="fill:none;stroke:#a9ccdb;stroke-miterlimit:10" />
		<line
   stroke-miterlimit="10"
   x1="288"
   y1="0"
   x2="288"
   y2="512"
   id="line52"
   style="fill:none;stroke:#a9ccdb;stroke-miterlimit:10" />
		<line
   stroke-miterlimit="10"
   x1="320"
   y1="0"
   x2="320"
   y2="512"
   id="line54"
   style="fill:none;stroke:#a9ccdb;stroke-miterlimit:10" />
		<line
   stroke-miterlimit="10"
   x1="352"
   y1="0"
   x2="352"
   y2="512"
   id="line56"
   style="fill:none;stroke:#a9ccdb;stroke-miterlimit:10" />
		<line
   stroke-miterlimit="10"
   x1="384"
   y1="0"
   x2="384"
   y2="512"
   id="line58"
   style="fill:none;stroke:#a9ccdb;stroke-miterlimit:10" />
		<line
   stroke-miterlimit="10"
   x1="416"
   y1="0"
   x2="416"
   y2="512"
   id="line60"
   style="fill:none;stroke:#a9ccdb;stroke-miterlimit:10" />
		<line
   stroke-miterlimit="10"
   x1="448"
   y1="0"
   x2="448"
   y2="512"
   id="line62"
   style="fill:none;stroke:#a9ccdb;stroke-miterlimit:10" />
		<line
   stroke-miterlimit="10"
   x1="480"
   y1="0"
   x2="480"
   y2="512"
   id="line64"
   style="fill:none;stroke:#a9ccdb;stroke-miterlimit:10" />
	</g>
	

        
    <path
   glyph-name="a"
   unicode="a"
   horiz-adv-x="1159"
   d="m 121.57985,131.21572 c 24.70475,36.91467 65.03907,69.07517 96.48244,100.58453 4.48296,4.48583 10.37936,6.75911 16.38104,7.58953 5.04588,0.80828 9.24233,0.39279 13.17981,-0.47056 C 252.90657,238.19212 260.3262,233.84705 265,236 c 1.3521,-1.01546 30.32454,-47.90601 24.72531,-46.46652 -16.4841,1.94691 -31.17172,-3.9654 -38.23221,-10.1115 -22.00672,-19.15636 -65.9262,-33.82228 -75.13384,-66.75472 -6.73798,-24.842702 -37.17831,-32.399276 -32.86817,-61.665404 7.95606,-41.4448102 48.16067,-22.81747 52.80224,-23.739834 2.78863,-0.553987 68.97828,19.310731 96.14984,28.399914 4.51505,0.50858 7.94258,2.163742 10.80892,4.353022 4.8905,3.736024 8.14576,9.027282 12.38274,12.829201 5.13763,4.569282 12.34956,9.961036 23.47313,17.704956 1.98198,1.391785 -0.58036,7.770065 -2.12441,13.023845 -0.22516,2.16998 -0.50999,4.11406 -0.84716,5.8907 -1.41009,7.43063 -3.73994,11.94654 -6.49256,17.91217 -17.16859,37.14797 -45.13757,71.50822 -64.64365,108.62416 -1.96735,3.74284 -0.0697,12.89558 -2.01068,18.0677 -4.42331,11.78361 -8.00282,24.74226 -11.68195,30.14194 -1.59752,2.3448 -6.52408,24.91476 -7.93918,26.47631 -4.7329,5.22204 -11.27552,12.089 -16.47955,16.51353 -4.27808,3.63727 -7.208,5.06708 -11.29131,7.35966 -4.11371,2.30962 -4.94118,2.359 -13.34813,0.80374 -9.72981,-1.80047 -13.336,-3.84626 -21.58535,-13.8635 -31.64018,-43.24284 -14.07946,-28.84702 -45.30631,-75.02881 -14.93724,-21.97343 -25.11227,-31.33905 -35.66951,-32.83073 -6.01747,-0.85028 -13.3611,2.09676 -15.63241,6.27438 -0.57022,1.04895 -1.3459,2.0945 -1.7236,2.32324 -0.84887,0.51483 -0.88433,9.11191 -0.0399,9.68007 0.32761,0.2208 1.14945,1.97585 1.82663,3.90063 1.49057,4.23723 16.1846,32.89658 27.51868,53.67348 17.73716,35.32394 6.36522,4.70975 22.12936,38.97269 4.04671,8.8786 5.57612,13.68118 9.72813,30.54322 2.04334,8.29906 6.64927,18.55313 7.64392,21.48087 2.4036,7.07811 3.1517,12.63566 3.1517,23.41519 0,11.63831 -1.33015,21.12768 -4.00506,28.56452 -3.01041,8.37228 -3.65832,11.90172 -3.6966,20.14003 l -0.0332,7.30973 2.1655,3.38638 c 11.42019,17.85653 32.33657,26.63633 52.18682,21.9053 5.79791,-1.38156 15.70952,-5.65909 21.86936,-9.43711 20.58425,-12.62652 47.77145,-39.32986 70.5565,-69.30126 16.91302,-29.37168 32.92423,-57.85617 48.28929,-85.63573 22.41822,-40.77842 43.9403,-80.2593 64.41481,-118.54643 9.1787,-17.18445 17.82663,-33.9177 24.97548,-49.46516 7.75963,-16.88703 13.51702,-33.50501 16.01347,-46.22407 1.78609,-9.09942 2.24035,-21.983074 1.00929,-28.619038 -2.28314,-12.304694 -9.97634,-21.421719 -23.0132,-27.272084 -11.71631,-5.155627 -21.54404,-3.462436 -31.10271,-1.438901 -5.05544,1.070519 -10.03599,2.233554 -15.18095,2.524171 -5.13312,0.123176 -9.89697,-1.126143 -14.99067,-4.101568 -4.51682,-2.638831 -9.29359,-6.634801 -14.81852,-12.236573 C 343.62158,30.393271 339.4216,22.322375 329.7858,18.719704 311.04729,11.757377 296.41119,10.619281 277.08658,2.3605262 254.59572,-7.5869095 230.42708,-9.7664699 211.25446,-13.832851 c -23.41565,-4.966045 -71.82064,-7.974428 -90.79675,1.155622 -14.21448,6.8397451 -22.665339,18.3094932 -26.464939,32.238681 -3.36222,14.39127 -7.122821,40.910746 -3.320401,55.702721 4.96819,19.328347 25.50531,29.888197 30.90736,55.951867 z"
   id="path40"
   inkscape:connector-curvature="0"
   sodipodi:nodetypes="cccccccccccccccccccccccccccccccccccsccccccccccccccccccccccccc"
   style="stroke-width:0.57881951" />


</svg>