<?xml version="1.0" encoding="UTF-8" standalone="no"?>
<svg
   xmlns:dc="http://purl.org/dc/elements/1.1/"
   xmlns:cc="http://creativecommons.org/ns#"
   xmlns:rdf="http://www.w3.org/1999/02/22-rdf-syntax-ns#"
   xmlns:svg="http://www.w3.org/2000/svg"
   xmlns="http://www.w3.org/2000/svg"
   xmlns:sodipodi="http://sodipodi.sourceforge.net/DTD/sodipodi-0.dtd"
   xmlns:inkscape="http://www.inkscape.org/namespaces/inkscape"
   version="1.1"
   id="Layer_1"
   x="0px"
   y="0px"
   width="1066.6666"
   height="1092.2667"
   viewBox="0 0 1000 1024"
   enable-background="new 0 0 512 512"
   xml:space="preserve"
   inkscape:version="0.92.1 r15371"
   sodipodi:docname="b-b.svg"><title
   id="title3743">Sinai 357</title><metadata
   id="metadata72"><rdf:RDF><cc:Work
       rdf:about=""><dc:format>image/svg+xml</dc:format><dc:type
         rdf:resource="http://purl.org/dc/dcmitype/StillImage" /><dc:title>Sinai 357</dc:title><dc:date>2017</dc:date><dc:creator><cc:Agent><dc:title>Celeste Claire Horner</dc:title></cc:Agent></dc:creator><dc:publisher><cc:Agent><dc:title>beitdina.net</dc:title></cc:Agent></dc:publisher></cc:Work></rdf:RDF></metadata><defs
   id="defs70" /><sodipodi:namedview
   pagecolor="#ffffff"
   bordercolor="#666666"
   borderopacity="1"
   objecttolerance="10"
   gridtolerance="10"
   guidetolerance="10"
   inkscape:pageopacity="0"
   inkscape:pageshadow="2"
   inkscape:window-width="1152"
   inkscape:window-height="814"
   id="namedview68"
   showgrid="false"
   inkscape:zoom="0.36045872"
   inkscape:cx="414.04146"
   inkscape:cy="655.56471"
   inkscape:window-x="-8"
   inkscape:window-y="-8"
   inkscape:window-maximized="1"
   inkscape:current-layer="Layer_1" />
   
	<g
   id="Grid"
   transform="matrix(1.9502951,0,0,-1.9942504,5.1344581,1028.3982)">
		<rect
   x="0"
   stroke-miterlimit="10"
   width="512"
   height="512"
   id="rect4"
   y="0"
   style="fill:none;stroke:#a9ccdb;stroke-miterlimit:10" />
		<line
   stroke-miterlimit="10"
   x1="0"
   y1="32"
   x2="512"
   y2="32"
   id="line6"
   style="fill:none;stroke:#a9ccdb;stroke-miterlimit:10" />
		<line
   stroke-miterlimit="10"
   x1="0"
   y1="64"
   x2="512"
   y2="64"
   id="line8"
   style="fill:none;stroke:#a9ccdb;stroke-miterlimit:10" />
		<line
   stroke-miterlimit="10"
   x1="0"
   y1="96"
   x2="512"
   y2="96"
   id="line10"
   style="fill:none;stroke:#a9ccdb;stroke-miterlimit:10" />
		<line
   stroke-miterlimit="10"
   x1="0"
   y1="128"
   x2="512"
   y2="128"
   id="line12"
   style="fill:none;stroke:#a9ccdb;stroke-miterlimit:10" />
		<line
   stroke-miterlimit="10"
   x1="0"
   y1="160"
   x2="512"
   y2="160"
   id="line14"
   style="fill:none;stroke:#a9ccdb;stroke-miterlimit:10" />
		<line
   stroke-miterlimit="10"
   x1="0"
   y1="192"
   x2="512"
   y2="192"
   id="line16"
   style="fill:none;stroke:#a9ccdb;stroke-miterlimit:10" />
		<line
   stroke-miterlimit="10"
   x1="0"
   y1="224"
   x2="512"
   y2="224"
   id="line18"
   style="fill:none;stroke:#a9ccdb;stroke-miterlimit:10" />
		<line
   stroke-miterlimit="10"
   x1="0"
   y1="256"
   x2="512"
   y2="256"
   id="line20"
   style="fill:none;stroke:#a9ccdb;stroke-miterlimit:10" />
		<line
   stroke-miterlimit="10"
   x1="0"
   y1="288"
   x2="512"
   y2="288"
   id="line22"
   style="fill:none;stroke:#a9ccdb;stroke-miterlimit:10" />
		<line
   stroke-miterlimit="10"
   x1="0"
   y1="320"
   x2="512"
   y2="320"
   id="line24"
   style="fill:none;stroke:#a9ccdb;stroke-miterlimit:10" />
		<line
   stroke-miterlimit="10"
   x1="0"
   y1="352"
   x2="512"
   y2="352"
   id="line26"
   style="fill:none;stroke:#a9ccdb;stroke-miterlimit:10" />
		<line
   stroke-miterlimit="10"
   x1="0"
   y1="384"
   x2="512"
   y2="384"
   id="line28"
   style="fill:none;stroke:#a9ccdb;stroke-miterlimit:10" />
		<line
   stroke-miterlimit="10"
   x1="0"
   y1="416"
   x2="512"
   y2="416"
   id="line30"
   style="fill:none;stroke:#a9ccdb;stroke-miterlimit:10" />
		<line
   stroke-miterlimit="10"
   x1="0"
   y1="448"
   x2="512"
   y2="448"
   id="line32"
   style="fill:none;stroke:#ff0000;stroke-miterlimit:10" />
		<line
   stroke-miterlimit="10"
   x1="0"
   y1="480"
   x2="512"
   y2="480"
   id="line34"
   style="fill:none;stroke:#a9ccdb;stroke-miterlimit:10" />
		<line
   stroke-miterlimit="10"
   x1="32"
   y1="0"
   x2="32"
   y2="512"
   id="line36"
   style="fill:none;stroke:#a9ccdb;stroke-miterlimit:10" />
		<line
   stroke-miterlimit="10"
   x1="64"
   y1="0"
   x2="64"
   y2="512"
   id="line38"
   style="fill:none;stroke:#a9ccdb;stroke-miterlimit:10" />
		<line
   stroke-miterlimit="10"
   x1="96"
   y1="0"
   x2="96"
   y2="512"
   id="line40"
   style="fill:none;stroke:#a9ccdb;stroke-miterlimit:10" />
		<line
   stroke-miterlimit="10"
   x1="128"
   y1="0"
   x2="128"
   y2="512"
   id="line42"
   style="fill:none;stroke:#a9ccdb;stroke-miterlimit:10" />
		<line
   stroke-miterlimit="10"
   x1="160"
   y1="0"
   x2="160"
   y2="512"
   id="line44"
   style="fill:none;stroke:#a9ccdb;stroke-miterlimit:10" />
		<line
   stroke-miterlimit="10"
   x1="192"
   y1="0"
   x2="192"
   y2="512"
   id="line46"
   style="fill:none;stroke:#a9ccdb;stroke-miterlimit:10" />
		<line
   stroke-miterlimit="10"
   x1="224"
   y1="0"
   x2="224"
   y2="512"
   id="line48"
   style="fill:none;stroke:#a9ccdb;stroke-miterlimit:10" />
		<line
   stroke-miterlimit="10"
   x1="256"
   y1="0"
   x2="256"
   y2="512"
   id="line50"
   style="fill:none;stroke:#a9ccdb;stroke-miterlimit:10" />
		<line
   stroke-miterlimit="10"
   x1="288"
   y1="0"
   x2="288"
   y2="512"
   id="line52"
   style="fill:none;stroke:#a9ccdb;stroke-miterlimit:10" />
		<line
   stroke-miterlimit="10"
   x1="320"
   y1="0"
   x2="320"
   y2="512"
   id="line54"
   style="fill:none;stroke:#a9ccdb;stroke-miterlimit:10" />
		<line
   stroke-miterlimit="10"
   x1="352"
   y1="0"
   x2="352"
   y2="512"
   id="line56"
   style="fill:none;stroke:#a9ccdb;stroke-miterlimit:10" />
		<line
   stroke-miterlimit="10"
   x1="384"
   y1="0"
   x2="384"
   y2="512"
   id="line58"
   style="fill:none;stroke:#a9ccdb;stroke-miterlimit:10" />
		<line
   stroke-miterlimit="10"
   x1="416"
   y1="0"
   x2="416"
   y2="512"
   id="line60"
   style="fill:none;stroke:#a9ccdb;stroke-miterlimit:10" />
		<line
   stroke-miterlimit="10"
   x1="448"
   y1="0"
   x2="448"
   y2="512"
   id="line62"
   style="fill:none;stroke:#a9ccdb;stroke-miterlimit:10" />
		<line
   stroke-miterlimit="10"
   x1="480"
   y1="0"
   x2="480"
   y2="512"
   id="line64"
   style="fill:none;stroke:#a9ccdb;stroke-miterlimit:10" />
	</g>
	

    
         


<g
   id="g206"
   transform="matrix(0.93749999,0,0,0.93749999,2191.2841,695.76495)"><g
     id="g2991"
     transform="matrix(4.4637923,0,0,4.9975799,-3306.2811,-1632.7003)"><g
       id="g4784" /><flowRoot
       xml:space="preserve"
       id="flowRoot4904"
       style="font-style:normal;font-variant:normal;font-weight:normal;font-stretch:normal;line-height:0.01%;font-family:Arial;-inkscape-font-specification:Arial;text-align:start;letter-spacing:0px;word-spacing:0px;writing-mode:lr-tb;text-anchor:start;fill:#000000;fill-opacity:1;stroke:none"><flowRegion
         id="flowRegion4906"><rect
           id="rect4908"
           width="594.73566"
           height="32.045979"
           x="31.103449"
           y="186.87357"
           style="font-size:28px" /></flowRegion><flowPara
         style="font-size:28px;line-height:1"
         id="flowPara4910"> </flowPara></flowRoot></g></g>
   
    
 
    <path
   glyph-name="b"
   unicode="b"
   horiz-adv-x="1159"
   d="m 413.682,669.458 c -20.9932,-0.46582 -103.991,-3.12988 -125.508,4.45508 -27.1738,7.30762 -26.5156,24.5244 -53.3223,20.9453 -13.1201,-2.70215 -25.9795,-9.7832 -35.6074,-19.6289 -8.31641,-8.50391 -8.24609,-17.6904 -9.82812,-29.2783 -3.53125,-49.791 -1.79492,-102.658 0.42285,-168.604 -0.59863,-17.9697 -1.0752,-35.0996 -1.42285,-51.6533 -4.07129,-68.5498 -5.75391,-145.521 -5.60742,-211.449 0.0371,-16.7588 0.19239,-32.8037 0.45703,-47.8164 0.32227,-16.457 6.61426,-27.7412 14.9697,-33.3613 5.1709,-3.13477 9.21875,-3.70508 27.8965,-2.57324 31.4805,9.0791 34.041,12.4023 57.0059,18.3936 15.9209,3.4541 23.1426,13.3105 27.7812,28.5352 5.06543,16.624 9.24316,33.0693 14.5098,51.5801 4.58008,16.2168 7.98242,32.5098 13.4561,47.9727 5.97949,15.0244 12.5068,30.0391 19.3584,44.6973 9.24121,19.7725 19.0703,38.8955 28.9395,56.5215 21.2051,37.6543 47.3477,72.793 85.4551,94.1846 20.1553,10.7207 30.9238,-10.6572 26.2529,-37.2041 -11.6426,-28.1758 -19.2002,-56.9355 -26.9307,-84.8115 -5.66602,-20.4473 -12.3955,-39.8613 -18.6445,-59.0625 -5.42188,-16.6572 -10.4824,-33.1533 -14.1768,-50.0244 -2.65723,-12.0586 -5.6377,-23.8066 -10.6729,-34.709 -7.5332,-16.0879 -17.6221,-30.998 -27.7197,-47.417 -12.54,-20.3457 -25.8271,-39.3359 -40.9365,-51.9893 -19.4316,-15.7578 -32.5957,-35.5205 -54.9502,-44.6191 -22.7217,-9.24805 -46.3906,-15.0801 -69.8594,-17.542 -21.0303,-2.09766 -41.8389,-1.11719 -63.2363,2.87109 -23.0498,3.58594 -59.22547,15.322553 -72.634665,28.479753 -17.5479,15.4736 -25.7188,32.274397 -30.9893,50.525397 -4.45117,15.415 -6.83301,31.8643 -11.0479,49.4219 -3.73828,60.8545 4.61621,58.3154 9.45508,124.104 5.11719,69.5605 6.73828,207.265 2.46777,263.83 -1.38965,21.9775 -2.41699,44.457 -2.94238,66.3701 -0.401367,16.7549 -0.510742,33.1797 -0.265625,48.7959 0.214844,12.5078 0.864258,25.0254 1.9375,38.2139 2.17871,19.0156 7.40137,30.4033 14.0586,37.6045 10.5068,11.3652 24.5859,12.3018 35.9043,16.3379 8.71484,1.58789 40.11517,1.4011 45.81927,1.5681 5.67969,0.16699 8.46387,2.2373 14.3213,3.09473 4.75684,1.30176 9.66113,0.7168 13.54,2.06445 28.9082,10.0469 38.5996,8.2959 52.2529,5.59082 32.2012,-1.01953 75.2207,-16.3467 111.901,-10.7441 18.5537,3.03613 35.6191,4.64941 58.9062,8.12109 28.2383,4.20898 61.2432,13.5596 73.6562,5.15137 10.3242,-5.5166 16.0391,-11.4385 16.0986,-18.1201 0.0898,-10.1826 -9.91211,-21.5186 -12.8389,-31.083 -32.3223,-45.1768 -45.3506,-63.5791 -77.6826,-67.7402 z"
   id="path45"
   inkscape:connector-curvature="0"
   sodipodi:nodetypes="cccccccccccccccccccccccccsccccccccccccccccccccccc" /> 
   
</svg>