<?xml version="1.0" encoding="UTF-8" standalone="no"?>
<svg
   xmlns:dc="http://purl.org/dc/elements/1.1/"
   xmlns:cc="http://creativecommons.org/ns#"
   xmlns:rdf="http://www.w3.org/1999/02/22-rdf-syntax-ns#"
   xmlns:svg="http://www.w3.org/2000/svg"
   xmlns="http://www.w3.org/2000/svg"
   xmlns:sodipodi="http://sodipodi.sourceforge.net/DTD/sodipodi-0.dtd"
   xmlns:inkscape="http://www.inkscape.org/namespaces/inkscape"
   version="1.1"
   id="Layer_1"
   x="0px"
   y="0px"
   width="1066.6666"
   height="1092.2667"
   viewBox="0 0 1000 1024"
   enable-background="new 0 0 512 512"
   xml:space="preserve"
   inkscape:version="0.92.1 r15371"
   sodipodi:docname="b-b.svg"><title
   id="title3743">Sinai 357</title><metadata
   id="metadata72"><rdf:RDF><cc:Work
       rdf:about=""><dc:format>image/svg+xml</dc:format><dc:type
         rdf:resource="http://purl.org/dc/dcmitype/StillImage" /><dc:title>Sinai 357</dc:title><dc:date>2017</dc:date><dc:creator><cc:Agent><dc:title>Celeste Claire Horner</dc:title></cc:Agent></dc:creator><dc:publisher><cc:Agent><dc:title>beitdina.net</dc:title></cc:Agent></dc:publisher></cc:Work></rdf:RDF></metadata><defs
   id="defs70" /><sodipodi:namedview
   pagecolor="#ffffff"
   bordercolor="#666666"
   borderopacity="1"
   objecttolerance="10"
   gridtolerance="10"
   guidetolerance="10"
   inkscape:pageopacity="0"
   inkscape:pageshadow="2"
   inkscape:window-width="1152"
   inkscape:window-height="814"
   id="namedview68"
   showgrid="false"
   inkscape:zoom="0.36045872"
   inkscape:cx="-72.189753"
   inkscape:cy="655.56471"
   inkscape:window-x="-8"
   inkscape:window-y="-8"
   inkscape:window-maximized="1"
   inkscape:current-layer="Layer_1" />
   
	<g
   id="Grid"
   transform="matrix(1.9502951,0,0,-1.9942504,5.1344581,1028.3982)">
		<rect
   x="0"
   stroke-miterlimit="10"
   width="512"
   height="512"
   id="rect4"
   y="0"
   style="fill:none;stroke:#a9ccdb;stroke-miterlimit:10" />
		<line
   stroke-miterlimit="10"
   x1="0"
   y1="32"
   x2="512"
   y2="32"
   id="line6"
   style="fill:none;stroke:#a9ccdb;stroke-miterlimit:10" />
		<line
   stroke-miterlimit="10"
   x1="0"
   y1="64"
   x2="512"
   y2="64"
   id="line8"
   style="fill:none;stroke:#a9ccdb;stroke-miterlimit:10" />
		<line
   stroke-miterlimit="10"
   x1="0"
   y1="96"
   x2="512"
   y2="96"
   id="line10"
   style="fill:none;stroke:#a9ccdb;stroke-miterlimit:10" />
		<line
   stroke-miterlimit="10"
   x1="0"
   y1="128"
   x2="512"
   y2="128"
   id="line12"
   style="fill:none;stroke:#a9ccdb;stroke-miterlimit:10" />
		<line
   stroke-miterlimit="10"
   x1="0"
   y1="160"
   x2="512"
   y2="160"
   id="line14"
   style="fill:none;stroke:#a9ccdb;stroke-miterlimit:10" />
		<line
   stroke-miterlimit="10"
   x1="0"
   y1="192"
   x2="512"
   y2="192"
   id="line16"
   style="fill:none;stroke:#a9ccdb;stroke-miterlimit:10" />
		<line
   stroke-miterlimit="10"
   x1="0"
   y1="224"
   x2="512"
   y2="224"
   id="line18"
   style="fill:none;stroke:#a9ccdb;stroke-miterlimit:10" />
		<line
   stroke-miterlimit="10"
   x1="0"
   y1="256"
   x2="512"
   y2="256"
   id="line20"
   style="fill:none;stroke:#a9ccdb;stroke-miterlimit:10" />
		<line
   stroke-miterlimit="10"
   x1="0"
   y1="288"
   x2="512"
   y2="288"
   id="line22"
   style="fill:none;stroke:#a9ccdb;stroke-miterlimit:10" />
		<line
   stroke-miterlimit="10"
   x1="0"
   y1="320"
   x2="512"
   y2="320"
   id="line24"
   style="fill:none;stroke:#a9ccdb;stroke-miterlimit:10" />
		<line
   stroke-miterlimit="10"
   x1="0"
   y1="352"
   x2="512"
   y2="352"
   id="line26"
   style="fill:none;stroke:#a9ccdb;stroke-miterlimit:10" />
		<line
   stroke-miterlimit="10"
   x1="0"
   y1="384"
   x2="512"
   y2="384"
   id="line28"
   style="fill:none;stroke:#a9ccdb;stroke-miterlimit:10" />
		<line
   stroke-miterlimit="10"
   x1="0"
   y1="416"
   x2="512"
   y2="416"
   id="line30"
   style="fill:none;stroke:#a9ccdb;stroke-miterlimit:10" />
		<line
   stroke-miterlimit="10"
   x1="0"
   y1="448"
   x2="512"
   y2="448"
   id="line32"
   style="fill:none;stroke:#ff0000;stroke-miterlimit:10" />
		<line
   stroke-miterlimit="10"
   x1="0"
   y1="480"
   x2="512"
   y2="480"
   id="line34"
   style="fill:none;stroke:#a9ccdb;stroke-miterlimit:10" />
		<line
   stroke-miterlimit="10"
   x1="32"
   y1="0"
   x2="32"
   y2="512"
   id="line36"
   style="fill:none;stroke:#a9ccdb;stroke-miterlimit:10" />
		<line
   stroke-miterlimit="10"
   x1="64"
   y1="0"
   x2="64"
   y2="512"
   id="line38"
   style="fill:none;stroke:#a9ccdb;stroke-miterlimit:10" />
		<line
   stroke-miterlimit="10"
   x1="96"
   y1="0"
   x2="96"
   y2="512"
   id="line40"
   style="fill:none;stroke:#a9ccdb;stroke-miterlimit:10" />
		<line
   stroke-miterlimit="10"
   x1="128"
   y1="0"
   x2="128"
   y2="512"
   id="line42"
   style="fill:none;stroke:#a9ccdb;stroke-miterlimit:10" />
		<line
   stroke-miterlimit="10"
   x1="160"
   y1="0"
   x2="160"
   y2="512"
   id="line44"
   style="fill:none;stroke:#a9ccdb;stroke-miterlimit:10" />
		<line
   stroke-miterlimit="10"
   x1="192"
   y1="0"
   x2="192"
   y2="512"
   id="line46"
   style="fill:none;stroke:#a9ccdb;stroke-miterlimit:10" />
		<line
   stroke-miterlimit="10"
   x1="224"
   y1="0"
   x2="224"
   y2="512"
   id="line48"
   style="fill:none;stroke:#a9ccdb;stroke-miterlimit:10" />
		<line
   stroke-miterlimit="10"
   x1="256"
   y1="0"
   x2="256"
   y2="512"
   id="line50"
   style="fill:none;stroke:#a9ccdb;stroke-miterlimit:10" />
		<line
   stroke-miterlimit="10"
   x1="288"
   y1="0"
   x2="288"
   y2="512"
   id="line52"
   style="fill:none;stroke:#a9ccdb;stroke-miterlimit:10" />
		<line
   stroke-miterlimit="10"
   x1="320"
   y1="0"
   x2="320"
   y2="512"
   id="line54"
   style="fill:none;stroke:#a9ccdb;stroke-miterlimit:10" />
		<line
   stroke-miterlimit="10"
   x1="352"
   y1="0"
   x2="352"
   y2="512"
   id="line56"
   style="fill:none;stroke:#a9ccdb;stroke-miterlimit:10" />
		<line
   stroke-miterlimit="10"
   x1="384"
   y1="0"
   x2="384"
   y2="512"
   id="line58"
   style="fill:none;stroke:#a9ccdb;stroke-miterlimit:10" />
		<line
   stroke-miterlimit="10"
   x1="416"
   y1="0"
   x2="416"
   y2="512"
   id="line60"
   style="fill:none;stroke:#a9ccdb;stroke-miterlimit:10" />
		<line
   stroke-miterlimit="10"
   x1="448"
   y1="0"
   x2="448"
   y2="512"
   id="line62"
   style="fill:none;stroke:#a9ccdb;stroke-miterlimit:10" />
		<line
   stroke-miterlimit="10"
   x1="480"
   y1="0"
   x2="480"
   y2="512"
   id="line64"
   style="fill:none;stroke:#a9ccdb;stroke-miterlimit:10" />
	</g>
	

    
         


<g
   id="g206"
   transform="matrix(0.93749999,0,0,0.93749999,2191.2841,695.76495)"><g
     id="g2991"
     transform="matrix(4.4637923,0,0,4.9975799,-3306.2811,-1632.7003)"><g
       id="g4784" /><flowRoot
       xml:space="preserve"
       id="flowRoot4904"
       style="font-style:normal;font-variant:normal;font-weight:normal;font-stretch:normal;line-height:0.01%;font-family:Arial;-inkscape-font-specification:Arial;text-align:start;letter-spacing:0px;word-spacing:0px;writing-mode:lr-tb;text-anchor:start;fill:#000000;fill-opacity:1;stroke:none"><flowRegion
         id="flowRegion4906"><rect
           id="rect4908"
           width="594.73566"
           height="32.045979"
           x="31.103449"
           y="186.87357"
           style="font-size:28px" /></flowRegion><flowPara
         style="font-size:28px;line-height:1"
         id="flowPara4910"> </flowPara></flowRoot></g></g>
   
        
     
    <path
   glyph-name="b"
   unicode="b"
   horiz-adv-x="485"
   d="m 364.08258,494.99469 c -18.67781,-0.40733 -92.52157,-2.73698 -111.6654,3.89583 -24.17672,6.39027 -23.59113,21.4458 -47.44124,18.31599 -11.67306,-2.36295 -23.11416,-8.5551 -31.68018,-17.16484 -7.39917,-7.4364 -7.33661,-15.46969 -8.74414,-25.60293 -3.14178,-43.54062 -1.59697,-89.7711 0.3762,-147.43874 -0.5326,-15.71392 -0.95661,-30.69347 -1.2659,-45.16913 -3.62227,-59.94459 -5.11932,-127.25342 -4.98898,-184.90532 0.033,-14.65503 0.17118,-28.68577 0.40662,-41.81389 0.28673,-14.39112 5.88476,-24.25879 13.31866,-29.17338 4.60058,-2.74126 8.20199,-3.23998 24.81972,-2.25022 28.00843,7.93938 30.28653,10.84541 50.71859,16.08461 14.16492,3.0205 20.59013,11.6396 24.71713,24.95311 4.50676,14.53715 8.2237,28.91804 12.90947,45.10513 4.07493,14.18107 7.10203,28.42877 11.97199,41.95057 5.32001,13.13835 11.1274,26.26822 17.22332,39.08635 8.22198,17.2904 16.96699,34.01286 25.74768,49.42622 18.86635,32.92746 42.1256,63.65512 76.03005,82.36138 17.93233,9.3749 27.51314,-9.31937 23.35739,-32.53378 -10.35849,-24.63883 -17.08255,-49.78825 -23.96043,-74.16491 -5.04111,-17.88051 -11.02838,-34.85741 -16.58816,-51.64824 -4.82388,-14.56619 -9.32626,-28.9915 -12.61319,-43.74472 -2.36417,-10.54486 -5.01591,-20.8181 -9.49577,-30.3519 C 370.53366,76.14353 361.5575,63.10513 352.57358,48.74725 341.41665,30.95559 329.59502,14.34927 316.15208,3.28428 298.86364,-10.4954 287.15145,-27.77724 267.26247,-35.733675 c -20.21566,-8.08712 -41.27406,-13.18706 -62.15442,-15.339911 -18.71082,-1.834336 -37.22439,-0.976947 -56.26181,2.510675 -20.50757,3.135789 -52.693348,13.399076 -64.6236,24.904621 -15.612497,13.53116 -22.882214,28.22292 -27.571413,44.18283 -3.960244,13.47992 -6.079377,27.8643 -9.829395,43.21785 -3.325984,53.21529 4.107068,50.99493 8.412249,108.52494 4.552808,60.8284 5.995103,181.24653 2.195598,230.71079 -1.236382,19.21862 -2.150413,38.87621 -2.617857,58.0385 -0.357102,14.65162 -0.454414,29.01458 -0.236337,42.67044 0.191152,10.93767 0.768938,21.88391 1.723808,33.41682 1.938413,16.62853 6.585052,26.5867 12.508045,32.88392 9.347977,9.9385 21.874255,10.75753 31.944322,14.28697 7.75365,1.38856 35.69077,1.2252 40.76574,1.37125 5.05327,0.14603 7.53038,1.95644 12.74177,2.70624 4.2322,1.13834 8.59558,0.62682 12.04664,1.80529 25.71985,8.78569 34.34235,7.2545 46.4898,4.889 28.64964,-0.89156 66.92441,-14.29466 99.55915,-9.39538 16.50737,2.655 31.69058,4.06576 52.40928,7.10164 25.12383,3.68061 54.48854,11.85743 65.53248,4.5047 9.18552,-4.82409 14.2701,-10.00259 14.32305,-15.84544 0.0799,-8.90435 -8.81888,-18.81732 -11.42288,-27.18108 -28.75738,-39.50564 -40.34876,-55.59786 -69.11478,-59.2366 z"
   id="path47"
   inkscape:connector-curvature="0"
   sodipodi:nodetypes="cccccccccccccccccccccccccsccccccccccccccccccccccc"
   style="stroke-width:0.88205463" /> 
   
</svg>