<?xml version="1.0" encoding="UTF-8" standalone="no"?>
<svg
   xmlns:dc="http://purl.org/dc/elements/1.1/"
   xmlns:cc="http://creativecommons.org/ns#"
   xmlns:rdf="http://www.w3.org/1999/02/22-rdf-syntax-ns#"
   xmlns:svg="http://www.w3.org/2000/svg"
   xmlns="http://www.w3.org/2000/svg"
   xmlns:sodipodi="http://sodipodi.sourceforge.net/DTD/sodipodi-0.dtd"
   xmlns:inkscape="http://www.inkscape.org/namespaces/inkscape"
   version="1.1"
   id="Layer_1"
   x="0px"
   y="0px"
   width="1066.6666"
   height="1092.2667"
   viewBox="0 0 1000 1024"
   enable-background="new 0 0 512 512"
   xml:space="preserve"
   inkscape:version="0.92.1 r15371"
   sodipodi:docname="c-c.svg"><title
   id="title3743">Sinai 357</title><metadata
   id="metadata72"><rdf:RDF><cc:Work
       rdf:about=""><dc:format>image/svg+xml</dc:format><dc:type
         rdf:resource="http://purl.org/dc/dcmitype/StillImage" /><dc:title>Sinai 357</dc:title><dc:date>2017</dc:date><dc:creator><cc:Agent><dc:title>Celeste Claire Horner</dc:title></cc:Agent></dc:creator><dc:publisher><cc:Agent><dc:title>beitdina.net</dc:title></cc:Agent></dc:publisher></cc:Work></rdf:RDF></metadata><defs
   id="defs70" /><sodipodi:namedview
   pagecolor="#ffffff"
   bordercolor="#666666"
   borderopacity="1"
   objecttolerance="10"
   gridtolerance="10"
   guidetolerance="10"
   inkscape:pageopacity="0"
   inkscape:pageshadow="2"
   inkscape:window-width="1152"
   inkscape:window-height="814"
   id="namedview68"
   showgrid="false"
   inkscape:zoom="0.50976562"
   inkscape:cx="340.21884"
   inkscape:cy="628.57297"
   inkscape:window-x="-8"
   inkscape:window-y="-8"
   inkscape:window-maximized="1"
   inkscape:current-layer="Layer_1" />
   
	<g
   id="Grid"
   transform="matrix(1.9502951,0,0,-1.9942504,5.1344581,1028.3982)">
		<rect
   x="0"
   stroke-miterlimit="10"
   width="512"
   height="512"
   id="rect4"
   y="0"
   style="fill:none;stroke:#a9ccdb;stroke-miterlimit:10" />
		<line
   stroke-miterlimit="10"
   x1="0"
   y1="32"
   x2="512"
   y2="32"
   id="line6"
   style="fill:none;stroke:#a9ccdb;stroke-miterlimit:10" />
		<line
   stroke-miterlimit="10"
   x1="0"
   y1="64"
   x2="512"
   y2="64"
   id="line8"
   style="fill:none;stroke:#a9ccdb;stroke-miterlimit:10" />
		<line
   stroke-miterlimit="10"
   x1="0"
   y1="96"
   x2="512"
   y2="96"
   id="line10"
   style="fill:none;stroke:#a9ccdb;stroke-miterlimit:10" />
		<line
   stroke-miterlimit="10"
   x1="0"
   y1="128"
   x2="512"
   y2="128"
   id="line12"
   style="fill:none;stroke:#a9ccdb;stroke-miterlimit:10" />
		<line
   stroke-miterlimit="10"
   x1="0"
   y1="160"
   x2="512"
   y2="160"
   id="line14"
   style="fill:none;stroke:#a9ccdb;stroke-miterlimit:10" />
		<line
   stroke-miterlimit="10"
   x1="0"
   y1="192"
   x2="512"
   y2="192"
   id="line16"
   style="fill:none;stroke:#a9ccdb;stroke-miterlimit:10" />
		<line
   stroke-miterlimit="10"
   x1="0"
   y1="224"
   x2="512"
   y2="224"
   id="line18"
   style="fill:none;stroke:#a9ccdb;stroke-miterlimit:10" />
		<line
   stroke-miterlimit="10"
   x1="0"
   y1="256"
   x2="512"
   y2="256"
   id="line20"
   style="fill:none;stroke:#a9ccdb;stroke-miterlimit:10" />
		<line
   stroke-miterlimit="10"
   x1="0"
   y1="288"
   x2="512"
   y2="288"
   id="line22"
   style="fill:none;stroke:#a9ccdb;stroke-miterlimit:10" />
		<line
   stroke-miterlimit="10"
   x1="0"
   y1="320"
   x2="512"
   y2="320"
   id="line24"
   style="fill:none;stroke:#a9ccdb;stroke-miterlimit:10" />
		<line
   stroke-miterlimit="10"
   x1="0"
   y1="352"
   x2="512"
   y2="352"
   id="line26"
   style="fill:none;stroke:#a9ccdb;stroke-miterlimit:10" />
		<line
   stroke-miterlimit="10"
   x1="0"
   y1="384"
   x2="512"
   y2="384"
   id="line28"
   style="fill:none;stroke:#a9ccdb;stroke-miterlimit:10" />
		<line
   stroke-miterlimit="10"
   x1="0"
   y1="416"
   x2="512"
   y2="416"
   id="line30"
   style="fill:none;stroke:#a9ccdb;stroke-miterlimit:10" />
		<line
   stroke-miterlimit="10"
   x1="0"
   y1="448"
   x2="512"
   y2="448"
   id="line32"
   style="fill:none;stroke:#ff0000;stroke-miterlimit:10" />
		<line
   stroke-miterlimit="10"
   x1="0"
   y1="480"
   x2="512"
   y2="480"
   id="line34"
   style="fill:none;stroke:#a9ccdb;stroke-miterlimit:10" />
		<line
   stroke-miterlimit="10"
   x1="32"
   y1="0"
   x2="32"
   y2="512"
   id="line36"
   style="fill:none;stroke:#a9ccdb;stroke-miterlimit:10" />
		<line
   stroke-miterlimit="10"
   x1="64"
   y1="0"
   x2="64"
   y2="512"
   id="line38"
   style="fill:none;stroke:#a9ccdb;stroke-miterlimit:10" />
		<line
   stroke-miterlimit="10"
   x1="96"
   y1="0"
   x2="96"
   y2="512"
   id="line40"
   style="fill:none;stroke:#a9ccdb;stroke-miterlimit:10" />
		<line
   stroke-miterlimit="10"
   x1="128"
   y1="0"
   x2="128"
   y2="512"
   id="line42"
   style="fill:none;stroke:#a9ccdb;stroke-miterlimit:10" />
		<line
   stroke-miterlimit="10"
   x1="160"
   y1="0"
   x2="160"
   y2="512"
   id="line44"
   style="fill:none;stroke:#a9ccdb;stroke-miterlimit:10" />
		<line
   stroke-miterlimit="10"
   x1="192"
   y1="0"
   x2="192"
   y2="512"
   id="line46"
   style="fill:none;stroke:#a9ccdb;stroke-miterlimit:10" />
		<line
   stroke-miterlimit="10"
   x1="224"
   y1="0"
   x2="224"
   y2="512"
   id="line48"
   style="fill:none;stroke:#a9ccdb;stroke-miterlimit:10" />
		<line
   stroke-miterlimit="10"
   x1="256"
   y1="0"
   x2="256"
   y2="512"
   id="line50"
   style="fill:none;stroke:#a9ccdb;stroke-miterlimit:10" />
		<line
   stroke-miterlimit="10"
   x1="288"
   y1="0"
   x2="288"
   y2="512"
   id="line52"
   style="fill:none;stroke:#a9ccdb;stroke-miterlimit:10" />
		<line
   stroke-miterlimit="10"
   x1="320"
   y1="0"
   x2="320"
   y2="512"
   id="line54"
   style="fill:none;stroke:#a9ccdb;stroke-miterlimit:10" />
		<line
   stroke-miterlimit="10"
   x1="352"
   y1="0"
   x2="352"
   y2="512"
   id="line56"
   style="fill:none;stroke:#a9ccdb;stroke-miterlimit:10" />
		<line
   stroke-miterlimit="10"
   x1="384"
   y1="0"
   x2="384"
   y2="512"
   id="line58"
   style="fill:none;stroke:#a9ccdb;stroke-miterlimit:10" />
		<line
   stroke-miterlimit="10"
   x1="416"
   y1="0"
   x2="416"
   y2="512"
   id="line60"
   style="fill:none;stroke:#a9ccdb;stroke-miterlimit:10" />
		<line
   stroke-miterlimit="10"
   x1="448"
   y1="0"
   x2="448"
   y2="512"
   id="line62"
   style="fill:none;stroke:#a9ccdb;stroke-miterlimit:10" />
		<line
   stroke-miterlimit="10"
   x1="480"
   y1="0"
   x2="480"
   y2="512"
   id="line64"
   style="fill:none;stroke:#a9ccdb;stroke-miterlimit:10" />
	</g>
	

    
         


<g
   id="g206"
   transform="matrix(0.93749999,0,0,0.93749999,2191.2841,695.76495)"><g
     id="g2991"
     transform="matrix(4.4637923,0,0,4.9975799,-3306.2811,-1632.7003)"><g
       id="g4784" /><flowRoot
       xml:space="preserve"
       id="flowRoot4904"
       style="font-style:normal;font-variant:normal;font-weight:normal;font-stretch:normal;line-height:0.01%;font-family:Arial;-inkscape-font-specification:Arial;text-align:start;letter-spacing:0px;word-spacing:0px;writing-mode:lr-tb;text-anchor:start;fill:#000000;fill-opacity:1;stroke:none"><flowRegion
         id="flowRegion4906"><rect
           id="rect4908"
           width="594.73566"
           height="32.045979"
           x="31.103449"
           y="186.87357"
           style="font-size:28px" /></flowRegion><flowPara
         style="font-size:28px;line-height:1"
         id="flowPara4910"> </flowPara></flowRoot></g></g>
   
    
 
     
    
  
    
       

<path
   glyph-name="c"
   unicode="c"
   horiz-adv-x="519"
   style="fill:#b92e2b;fill-opacity:0.78695655;stroke-width:0.63420767"
   d="m 427.48668,-18.924336 c 3.82604,0.231088 -1.84389,3.172098 0.17286,3.541624 3.68537,0.817129 0.0738,3.520921 2.02819,6.0186147 2.49551,2.6332633 0.75236,4.8953864 0.22346,6.7552908 -0.4265,1.4996575 0.53058,3.2804732 -1.04512,5.3490352 -3.90069,4.4769621 -4.32457,9.9170703 -8.36056,14.3969733 -2.45424,3.678486 -6.61231,7.835487 -12.07939,12.225959 -10.43965,8.383853 -32.45847,16.918182 -49.69504,25.298414 -7.0281,-1.523107 -16.39246,-2.859538 -26.19117,-3.895456 -10.524,-1.112587 -21.54902,-1.878522 -30.71879,-2.156727 -7.30001,-0.154658 -14.1155,0.201182 -20.66455,1.070482 -16.26847,2.159449 -30.89282,7.48737 -47.21581,16.029293 -11.38199,6.372201 -22.06057,15.145837 -31.39744,25.130066 -16.38592,17.522067 -28.63944,38.772737 -33.3103,57.315477 -3.19379,13.34225 -3.58928,27.31294 -1.64742,42.73523 1.81706,13.95164 5.31469,27.54507 10.40741,40.17261 5.83097,13.89981 9.31734,23.84225 16.38661,35.99624 6.63871,11.38111 13.67761,22.03663 21.442,31.18702 5.28245,6.22544 17.43454,13.62323 23.49109,18.20983 20.89763,11.73151 42.42632,16.03123 63.56295,15.49241 20.58777,-0.5248 40.80356,-5.64012 59.70194,-12.94951 19.29234,-10.47319 31.60861,-19.16875 48.52027,-31.99115 3.1965,-1.92655 5.58217,-4.31494 7.48474,-6.99409 3.98888,-5.61712 5.85408,-12.51239 8.61551,-19.10934 4.10191,-9.83005 9.61665,-13.94443 15.4372,-12.93045 3.90157,0.70844 15.58865,3.14517 17.59005,11.79972 1.04603,4.52315 2.08669,9.97603 3.08742,15.90982 3.91897,23.23792 7.22501,53.85163 7.83789,64.88542 1.56371,11.49209 3.23562,22.54374 4.72387,33.30367 2.34344,11.94493 3.07496,21.59583 2.5698,31.62161 -2.9089,20.40143 -2.56443,44.44706 -7.87376,62.61748 -1.89658,6.19721 -4.56145,11.75768 -8.44108,16.20562 -2.70595,3.06417 -5.68554,5.74929 -8.30218,7.90659 -5.49726,4.43523 -11.55583,8.03132 -17.82215,10.60132 -8.60535,2.91209 -16.03385,4.69973 -22.75391,3.90077 -6.34538,-0.75447 -12.05903,-3.81521 -17.5352,-10.41329 -7.61156,-7.85101 -11.287,-15.50614 -14.0859,-25.06809 -7.07521,-24.17104 -8.83372,-46.24824 -20.54468,-66.3702 -22.54778,-12.18077 -54.28624,-9.28953 -73.75667,-6.86975 -0.94239,2.56076 -4.77416,12.68351 -6.27486,15.5248 -15.94197,30.87559 -37.73374,60.65435 -64.83083,79.64459 -13.29341,6.71912 -20.50201,12.21868 -33.9247,7.99951 -8.68338,-2.32347 -15.7108,-8.46214 -19.37603,-15.77118 -1.9517,-1.28434 -6.24312,-10.78395 -6.80458,-11.38129 l 0.0119,-14.05976 c 0.007,-7.74197 24.06368,-48.89782 24.06167,-54.42132 v -6.71897 c 0.32468,-2.5756 -0.46394,-5.12178 -1.26838,-7.2123 -0.4902,-1.26726 -1.06422,-2.59587 -1.68958,-3.94328 -2.40942,-5.19116 -5.58144,-10.66122 -7.66312,-13.97512 -6.67489,-17.75183 -17.62965,-33.9271 -28.53395,-49.59377 -9.52867,-12.1481 -17.09466,-24.89324 -23.41574,-37.81964 -5.71153,-11.6799 -10.4067,-23.50774 -14.615,-35.17684 -5.385804,-14.99465 -10.067341,-29.93759 -14.008104,-44.26137 -2.4487,-16.32436 -3.577084,-31.72216 -2.605296,-46.63668 0.794061,-12.18679 2.990335,-24.05089 7.014306,-35.83417 8.217234,-23.76644 21.434174,-47.932126 35.123364,-63.981687 19.64587,-20.379886 48.2195,-36.698911 72.1068,-48.739686 23.33453,-11.30846275 52.71681,-15.7886811 78.60683,-26.419028 19.92159,-2.571834 49.01213,-8.367152 73.70449,-13.483244 22.71517,-4.706483 44.47302,-7.256491 59.79804,-1.701731 10.58133,4.548649 2.62933,3.052545 11.65214,7.023499 z"
   id="path3769"
   inkscape:connector-curvature="0"
   sodipodi:nodetypes="cccsccscscscsccccscsccsccsscccccccscscccccccscccsccsccsccccsccc" />
   
   
   </svg>