<?xml version="1.0" encoding="UTF-8" standalone="no"?>
<svg
   xmlns:dc="http://purl.org/dc/elements/1.1/"
   xmlns:cc="http://creativecommons.org/ns#"
   xmlns:rdf="http://www.w3.org/1999/02/22-rdf-syntax-ns#"
   xmlns:svg="http://www.w3.org/2000/svg"
   xmlns="http://www.w3.org/2000/svg"
   xmlns:sodipodi="http://sodipodi.sourceforge.net/DTD/sodipodi-0.dtd"
   xmlns:inkscape="http://www.inkscape.org/namespaces/inkscape"
   version="1.1"
   id="Layer_1"
   x="0px"
   y="0px"
   width="1066.6666"
   height="1092.2667"
   viewBox="0 0 1000 1024"
   enable-background="new 0 0 512 512"
   xml:space="preserve"
   inkscape:version="0.92.1 r15371"
   sodipodi:docname="c-c.svg"><title
   id="title3743">Sinai 357</title><metadata
   id="metadata72"><rdf:RDF><cc:Work
       rdf:about=""><dc:format>image/svg+xml</dc:format><dc:type
         rdf:resource="http://purl.org/dc/dcmitype/StillImage" /><dc:title>Sinai 357</dc:title><dc:date>2017</dc:date><dc:creator><cc:Agent><dc:title>Celeste Claire Horner</dc:title></cc:Agent></dc:creator><dc:publisher><cc:Agent><dc:title>beitdina.net</dc:title></cc:Agent></dc:publisher></cc:Work></rdf:RDF></metadata><defs
   id="defs70" /><sodipodi:namedview
   pagecolor="#ffffff"
   bordercolor="#666666"
   borderopacity="1"
   objecttolerance="10"
   gridtolerance="10"
   guidetolerance="10"
   inkscape:pageopacity="0"
   inkscape:pageshadow="2"
   inkscape:window-width="1152"
   inkscape:window-height="814"
   id="namedview68"
   showgrid="false"
   inkscape:zoom="0.25488281"
   inkscape:cx="153.73141"
   inkscape:cy="464.56881"
   inkscape:window-x="-8"
   inkscape:window-y="-8"
   inkscape:window-maximized="1"
   inkscape:current-layer="Layer_1" />
   
	<g
   id="Grid"
   transform="matrix(1.9502951,0,0,-1.9942504,5.1344581,1028.3982)">
		<rect
   x="0"
   stroke-miterlimit="10"
   width="512"
   height="512"
   id="rect4"
   y="0"
   style="fill:none;stroke:#a9ccdb;stroke-miterlimit:10" />
		<line
   stroke-miterlimit="10"
   x1="0"
   y1="32"
   x2="512"
   y2="32"
   id="line6"
   style="fill:none;stroke:#a9ccdb;stroke-miterlimit:10" />
		<line
   stroke-miterlimit="10"
   x1="0"
   y1="64"
   x2="512"
   y2="64"
   id="line8"
   style="fill:none;stroke:#a9ccdb;stroke-miterlimit:10" />
		<line
   stroke-miterlimit="10"
   x1="0"
   y1="96"
   x2="512"
   y2="96"
   id="line10"
   style="fill:none;stroke:#a9ccdb;stroke-miterlimit:10" />
		<line
   stroke-miterlimit="10"
   x1="0"
   y1="128"
   x2="512"
   y2="128"
   id="line12"
   style="fill:none;stroke:#a9ccdb;stroke-miterlimit:10" />
		<line
   stroke-miterlimit="10"
   x1="0"
   y1="160"
   x2="512"
   y2="160"
   id="line14"
   style="fill:none;stroke:#a9ccdb;stroke-miterlimit:10" />
		<line
   stroke-miterlimit="10"
   x1="0"
   y1="192"
   x2="512"
   y2="192"
   id="line16"
   style="fill:none;stroke:#a9ccdb;stroke-miterlimit:10" />
		<line
   stroke-miterlimit="10"
   x1="0"
   y1="224"
   x2="512"
   y2="224"
   id="line18"
   style="fill:none;stroke:#a9ccdb;stroke-miterlimit:10" />
		<line
   stroke-miterlimit="10"
   x1="0"
   y1="256"
   x2="512"
   y2="256"
   id="line20"
   style="fill:none;stroke:#a9ccdb;stroke-miterlimit:10" />
		<line
   stroke-miterlimit="10"
   x1="0"
   y1="288"
   x2="512"
   y2="288"
   id="line22"
   style="fill:none;stroke:#a9ccdb;stroke-miterlimit:10" />
		<line
   stroke-miterlimit="10"
   x1="0"
   y1="320"
   x2="512"
   y2="320"
   id="line24"
   style="fill:none;stroke:#a9ccdb;stroke-miterlimit:10" />
		<line
   stroke-miterlimit="10"
   x1="0"
   y1="352"
   x2="512"
   y2="352"
   id="line26"
   style="fill:none;stroke:#a9ccdb;stroke-miterlimit:10" />
		<line
   stroke-miterlimit="10"
   x1="0"
   y1="384"
   x2="512"
   y2="384"
   id="line28"
   style="fill:none;stroke:#a9ccdb;stroke-miterlimit:10" />
		<line
   stroke-miterlimit="10"
   x1="0"
   y1="416"
   x2="512"
   y2="416"
   id="line30"
   style="fill:none;stroke:#a9ccdb;stroke-miterlimit:10" />
		<line
   stroke-miterlimit="10"
   x1="0"
   y1="448"
   x2="512"
   y2="448"
   id="line32"
   style="fill:none;stroke:#ff0000;stroke-miterlimit:10" />
		<line
   stroke-miterlimit="10"
   x1="0"
   y1="480"
   x2="512"
   y2="480"
   id="line34"
   style="fill:none;stroke:#a9ccdb;stroke-miterlimit:10" />
		<line
   stroke-miterlimit="10"
   x1="32"
   y1="0"
   x2="32"
   y2="512"
   id="line36"
   style="fill:none;stroke:#a9ccdb;stroke-miterlimit:10" />
		<line
   stroke-miterlimit="10"
   x1="64"
   y1="0"
   x2="64"
   y2="512"
   id="line38"
   style="fill:none;stroke:#a9ccdb;stroke-miterlimit:10" />
		<line
   stroke-miterlimit="10"
   x1="96"
   y1="0"
   x2="96"
   y2="512"
   id="line40"
   style="fill:none;stroke:#a9ccdb;stroke-miterlimit:10" />
		<line
   stroke-miterlimit="10"
   x1="128"
   y1="0"
   x2="128"
   y2="512"
   id="line42"
   style="fill:none;stroke:#a9ccdb;stroke-miterlimit:10" />
		<line
   stroke-miterlimit="10"
   x1="160"
   y1="0"
   x2="160"
   y2="512"
   id="line44"
   style="fill:none;stroke:#a9ccdb;stroke-miterlimit:10" />
		<line
   stroke-miterlimit="10"
   x1="192"
   y1="0"
   x2="192"
   y2="512"
   id="line46"
   style="fill:none;stroke:#a9ccdb;stroke-miterlimit:10" />
		<line
   stroke-miterlimit="10"
   x1="224"
   y1="0"
   x2="224"
   y2="512"
   id="line48"
   style="fill:none;stroke:#a9ccdb;stroke-miterlimit:10" />
		<line
   stroke-miterlimit="10"
   x1="256"
   y1="0"
   x2="256"
   y2="512"
   id="line50"
   style="fill:none;stroke:#a9ccdb;stroke-miterlimit:10" />
		<line
   stroke-miterlimit="10"
   x1="288"
   y1="0"
   x2="288"
   y2="512"
   id="line52"
   style="fill:none;stroke:#a9ccdb;stroke-miterlimit:10" />
		<line
   stroke-miterlimit="10"
   x1="320"
   y1="0"
   x2="320"
   y2="512"
   id="line54"
   style="fill:none;stroke:#a9ccdb;stroke-miterlimit:10" />
		<line
   stroke-miterlimit="10"
   x1="352"
   y1="0"
   x2="352"
   y2="512"
   id="line56"
   style="fill:none;stroke:#a9ccdb;stroke-miterlimit:10" />
		<line
   stroke-miterlimit="10"
   x1="384"
   y1="0"
   x2="384"
   y2="512"
   id="line58"
   style="fill:none;stroke:#a9ccdb;stroke-miterlimit:10" />
		<line
   stroke-miterlimit="10"
   x1="416"
   y1="0"
   x2="416"
   y2="512"
   id="line60"
   style="fill:none;stroke:#a9ccdb;stroke-miterlimit:10" />
		<line
   stroke-miterlimit="10"
   x1="448"
   y1="0"
   x2="448"
   y2="512"
   id="line62"
   style="fill:none;stroke:#a9ccdb;stroke-miterlimit:10" />
		<line
   stroke-miterlimit="10"
   x1="480"
   y1="0"
   x2="480"
   y2="512"
   id="line64"
   style="fill:none;stroke:#a9ccdb;stroke-miterlimit:10" />
	</g>
	

    
         


<g
   id="g206"
   transform="matrix(0.93749999,0,0,0.93749999,2191.2841,695.76495)"><g
     id="g2991"
     transform="matrix(4.4637923,0,0,4.9975799,-3306.2811,-1632.7003)"><g
       id="g4784" /><flowRoot
       xml:space="preserve"
       id="flowRoot4904"
       style="font-style:normal;font-variant:normal;font-weight:normal;font-stretch:normal;line-height:0.01%;font-family:Arial;-inkscape-font-specification:Arial;text-align:start;letter-spacing:0px;word-spacing:0px;writing-mode:lr-tb;text-anchor:start;fill:#000000;fill-opacity:1;stroke:none"><flowRegion
         id="flowRegion4906"><rect
           id="rect4908"
           width="594.73566"
           height="32.045979"
           x="31.103449"
           y="186.87357"
           style="font-size:28px" /></flowRegion><flowPara
         style="font-size:28px;line-height:1"
         id="flowPara4910"> </flowPara></flowRoot></g></g>
   
    
 
     
    
  
   

<path
   glyph-name="c"
   unicode="c"
   horiz-adv-x="1159"
   style="fill:#b92e2b;fill-opacity:0.78695655;stroke-width:0.99203891"
   d="m 542.85273,38.108641 c 5.67519,0.38119 -2.73505,5.23251 0.25642,5.84206 5.46653,1.34789 0.1094,5.80791 3.00842,9.92796 3.7016,4.34368 1.11597,8.07515 0.33146,11.14314 -0.63263,2.47375 0.78701,5.41128 -1.55024,8.82346 -5.7859,7.38494 -6.41467,16.35863 -12.40127,23.74842 -3.64039,6.067819 -9.80809,12.924969 -17.91744,20.167239 -15.48521,13.82952 -48.14587,27.90726 -73.71298,41.73081 -10.42482,-2.51243 -24.31505,-4.71693 -38.84954,-6.42572 -15.61031,-1.83526 -31.9638,-3.0987 -45.56539,-3.55762 -10.82815,-0.25511 -20.93761,0.33186 -30.65187,1.76581 -24.13112,3.5621 -45.82351,12.35074 -70.03551,26.441 -16.88298,10.51121 -32.7226,24.98371 -46.57202,41.45312 -24.30536,28.90339 -42.48108,63.95727 -49.40938,94.54431 -4.73739,22.00861 -5.32402,45.05386 -2.44364,70.49357 2.69525,23.01383 7.88332,45.43678 15.43737,66.26643 8.64912,22.92832 13.82047,39.3288 24.30636,59.37734 9.84725,18.77362 20.28809,36.35034 31.80507,51.4443 7.83551,10.26912 25.86078,22.4721 34.84448,30.03789 30.9976,19.35163 62.93126,26.44421 94.28337,25.55541 30.53795,-0.86571 60.52418,-9.30365 88.55627,-21.3608 28.61644,-17.27597 46.88525,-31.61966 71.97044,-52.77076 4.74139,-3.17792 8.28007,-7.11767 11.10215,-11.53703 5.91674,-9.26568 8.6834,-20.63972 12.77944,-31.52168 6.08439,-16.21508 14.26444,-23.00194 22.89811,-21.32933 5.78722,1.16861 23.12274,5.18812 26.09146,19.46415 1.55156,7.46112 3.09519,16.45588 4.57957,26.24393 5.81303,38.33192 10.71689,88.83054 11.62599,107.03124 2.31946,18.95671 4.79942,37.18686 7.00696,54.93583 3.47603,19.70367 4.5611,35.62324 3.8118,52.16118 -4.31479,33.65302 -3.80384,73.31733 -11.67919,103.29021 -2.81324,10.22256 -6.76604,19.39477 -12.52072,26.73184 -4.01376,5.0545 -8.4334,9.48371 -12.31469,13.04227 -8.15412,7.31609 -17.14083,13.24799 -26.43571,17.48732 -12.76437,4.80363 -23.78311,7.75241 -33.75103,6.4345 -9.41214,-1.24455 -17.88724,-6.29337 -26.01007,-17.17717 -11.29028,-12.95059 -16.74208,-25.57803 -20.89372,-41.35088 -10.49471,-39.87116 -13.1031,-76.28844 -30.47405,-109.48046 -33.44527,-20.09272 -80.52314,-15.32348 -109.40376,-11.33195 -1.39785,4.22408 -7.08155,20.92199 -9.30754,25.6088 -23.64683,50.9306 -55.97072,100.05193 -96.16399,131.37714 -19.71822,11.08348 -30.41077,20.15525 -50.32074,13.19556 -12.88012,-3.83269 -23.30395,-13.95867 -28.74061,-26.01526 -2.89495,-2.11856 -9.26044,-17.78857 -10.09326,-18.77391 l 0.0175,-23.19218 c 0.0104,-12.7707 35.69383,-80.65903 35.69082,-89.77027 v -11.08323 c 0.48161,-4.24858 -0.68815,-8.4486 -1.88138,-11.89701 -0.72713,-2.09039 -1.57856,-4.28198 -2.50618,-6.5046 -3.57385,-8.56304 -8.27894,-17.58613 -11.36669,-23.05254 -9.90092,-29.28242 -26.15018,-55.96421 -42.32462,-81.80704 -14.13392,-20.03879 -25.356603,-41.06247 -34.732713,-62.38511 -8.47195,-19.26647 -15.43631,-38.77701 -21.67853,-58.02568 -7.98879,-24.73431 -14.93294,-49.38333 -20.77831,-73.01102 -3.63216,-26.92773 -5.30591,-52.32704 -3.86445,-76.92918 1.17784,-20.10261 4.43558,-39.67297 10.40436,-59.10999 12.18869,-39.20375 31.79347,-79.06607 52.09874,-105.5405 29.140843,-33.61749 71.524293,-60.53642 106.956473,-80.398189 34.61229,-18.65379 78.1952,-26.0441 116.59804,-43.57931 29.54984,-4.24235 72.70002,-13.80197 109.32635,-22.241184 33.69358,-7.763543 65.96712,-11.96989 88.69884,-2.807078 15.69535,7.503192 3.9001,5.035303 17.28369,11.585562 z"
   id="path3769"
   inkscape:connector-curvature="0"
   sodipodi:nodetypes="cccsccscscscsccccscsccsccsscccccccscscccccccscccsccsccsccccsccc" />
   
   
   </svg>