<?xml version="1.0" encoding="UTF-8" standalone="no"?>
<svg
   xmlns:dc="http://purl.org/dc/elements/1.1/"
   xmlns:cc="http://creativecommons.org/ns#"
   xmlns:rdf="http://www.w3.org/1999/02/22-rdf-syntax-ns#"
   xmlns:svg="http://www.w3.org/2000/svg"
   xmlns="http://www.w3.org/2000/svg"
   xmlns:sodipodi="http://sodipodi.sourceforge.net/DTD/sodipodi-0.dtd"
   xmlns:inkscape="http://www.inkscape.org/namespaces/inkscape"
   version="1.1"
   id="Layer_1"
   x="0px"
   y="0px"
   width="1066.6666"
   height="1092.2667"
   viewBox="0 0 1000 1024"
   enable-background="new 0 0 512 512"
   xml:space="preserve"
   inkscape:version="0.92.1 r15371"
   sodipodi:docname="e-e.svg"><title
   id="title3743">Sinai 357</title><metadata
   id="metadata72"><rdf:RDF><cc:Work
       rdf:about=""><dc:format>image/svg+xml</dc:format><dc:type
         rdf:resource="http://purl.org/dc/dcmitype/StillImage" /><dc:title>Sinai 357</dc:title><dc:date>2017</dc:date><dc:creator><cc:Agent><dc:title>Celeste Claire Horner</dc:title></cc:Agent></dc:creator><dc:publisher><cc:Agent><dc:title>beitdina.net</dc:title></cc:Agent></dc:publisher></cc:Work></rdf:RDF></metadata><defs
   id="defs70" /><sodipodi:namedview
   pagecolor="#ffffff"
   bordercolor="#666666"
   borderopacity="1"
   objecttolerance="10"
   gridtolerance="10"
   guidetolerance="10"
   inkscape:pageopacity="0"
   inkscape:pageshadow="2"
   inkscape:window-width="1152"
   inkscape:window-height="814"
   id="namedview68"
   showgrid="false"
   inkscape:zoom="0.36045873"
   inkscape:cx="255.7028"
   inkscape:cy="638.54971"
   inkscape:window-x="-8"
   inkscape:window-y="-8"
   inkscape:window-maximized="1"
   inkscape:current-layer="Layer_1" />
   
	<g
   id="Grid"
   transform="matrix(1.9502951,0,0,-1.9942504,5.1344581,1028.3982)">
		<rect
   x="0"
   stroke-miterlimit="10"
   width="512"
   height="512"
   id="rect4"
   y="0"
   style="fill:none;stroke:#a9ccdb;stroke-miterlimit:10" />
		<line
   stroke-miterlimit="10"
   x1="0"
   y1="32"
   x2="512"
   y2="32"
   id="line6"
   style="fill:none;stroke:#a9ccdb;stroke-miterlimit:10" />
		<line
   stroke-miterlimit="10"
   x1="0"
   y1="64"
   x2="512"
   y2="64"
   id="line8"
   style="fill:none;stroke:#a9ccdb;stroke-miterlimit:10" />
		<line
   stroke-miterlimit="10"
   x1="0"
   y1="96"
   x2="512"
   y2="96"
   id="line10"
   style="fill:none;stroke:#a9ccdb;stroke-miterlimit:10" />
		<line
   stroke-miterlimit="10"
   x1="0"
   y1="128"
   x2="512"
   y2="128"
   id="line12"
   style="fill:none;stroke:#a9ccdb;stroke-miterlimit:10" />
		<line
   stroke-miterlimit="10"
   x1="0"
   y1="160"
   x2="512"
   y2="160"
   id="line14"
   style="fill:none;stroke:#a9ccdb;stroke-miterlimit:10" />
		<line
   stroke-miterlimit="10"
   x1="0"
   y1="192"
   x2="512"
   y2="192"
   id="line16"
   style="fill:none;stroke:#a9ccdb;stroke-miterlimit:10" />
		<line
   stroke-miterlimit="10"
   x1="0"
   y1="224"
   x2="512"
   y2="224"
   id="line18"
   style="fill:none;stroke:#a9ccdb;stroke-miterlimit:10" />
		<line
   stroke-miterlimit="10"
   x1="0"
   y1="256"
   x2="512"
   y2="256"
   id="line20"
   style="fill:none;stroke:#a9ccdb;stroke-miterlimit:10" />
		<line
   stroke-miterlimit="10"
   x1="0"
   y1="288"
   x2="512"
   y2="288"
   id="line22"
   style="fill:none;stroke:#a9ccdb;stroke-miterlimit:10" />
		<line
   stroke-miterlimit="10"
   x1="0"
   y1="320"
   x2="512"
   y2="320"
   id="line24"
   style="fill:none;stroke:#a9ccdb;stroke-miterlimit:10" />
		<line
   stroke-miterlimit="10"
   x1="0"
   y1="352"
   x2="512"
   y2="352"
   id="line26"
   style="fill:none;stroke:#a9ccdb;stroke-miterlimit:10" />
		<line
   stroke-miterlimit="10"
   x1="0"
   y1="384"
   x2="512"
   y2="384"
   id="line28"
   style="fill:none;stroke:#a9ccdb;stroke-miterlimit:10" />
		<line
   stroke-miterlimit="10"
   x1="0"
   y1="416"
   x2="512"
   y2="416"
   id="line30"
   style="fill:none;stroke:#a9ccdb;stroke-miterlimit:10" />
		<line
   stroke-miterlimit="10"
   x1="0"
   y1="448"
   x2="512"
   y2="448"
   id="line32"
   style="fill:none;stroke:#ff0000;stroke-miterlimit:10" />
		<line
   stroke-miterlimit="10"
   x1="0"
   y1="480"
   x2="512"
   y2="480"
   id="line34"
   style="fill:none;stroke:#a9ccdb;stroke-miterlimit:10" />
		<line
   stroke-miterlimit="10"
   x1="32"
   y1="0"
   x2="32"
   y2="512"
   id="line36"
   style="fill:none;stroke:#a9ccdb;stroke-miterlimit:10" />
		<line
   stroke-miterlimit="10"
   x1="64"
   y1="0"
   x2="64"
   y2="512"
   id="line38"
   style="fill:none;stroke:#a9ccdb;stroke-miterlimit:10" />
		<line
   stroke-miterlimit="10"
   x1="96"
   y1="0"
   x2="96"
   y2="512"
   id="line40"
   style="fill:none;stroke:#a9ccdb;stroke-miterlimit:10" />
		<line
   stroke-miterlimit="10"
   x1="128"
   y1="0"
   x2="128"
   y2="512"
   id="line42"
   style="fill:none;stroke:#a9ccdb;stroke-miterlimit:10" />
		<line
   stroke-miterlimit="10"
   x1="160"
   y1="0"
   x2="160"
   y2="512"
   id="line44"
   style="fill:none;stroke:#a9ccdb;stroke-miterlimit:10" />
		<line
   stroke-miterlimit="10"
   x1="192"
   y1="0"
   x2="192"
   y2="512"
   id="line46"
   style="fill:none;stroke:#a9ccdb;stroke-miterlimit:10" />
		<line
   stroke-miterlimit="10"
   x1="224"
   y1="0"
   x2="224"
   y2="512"
   id="line48"
   style="fill:none;stroke:#a9ccdb;stroke-miterlimit:10" />
		<line
   stroke-miterlimit="10"
   x1="256"
   y1="0"
   x2="256"
   y2="512"
   id="line50"
   style="fill:none;stroke:#a9ccdb;stroke-miterlimit:10" />
		<line
   stroke-miterlimit="10"
   x1="288"
   y1="0"
   x2="288"
   y2="512"
   id="line52"
   style="fill:none;stroke:#a9ccdb;stroke-miterlimit:10" />
		<line
   stroke-miterlimit="10"
   x1="320"
   y1="0"
   x2="320"
   y2="512"
   id="line54"
   style="fill:none;stroke:#a9ccdb;stroke-miterlimit:10" />
		<line
   stroke-miterlimit="10"
   x1="352"
   y1="0"
   x2="352"
   y2="512"
   id="line56"
   style="fill:none;stroke:#a9ccdb;stroke-miterlimit:10" />
		<line
   stroke-miterlimit="10"
   x1="384"
   y1="0"
   x2="384"
   y2="512"
   id="line58"
   style="fill:none;stroke:#a9ccdb;stroke-miterlimit:10" />
		<line
   stroke-miterlimit="10"
   x1="416"
   y1="0"
   x2="416"
   y2="512"
   id="line60"
   style="fill:none;stroke:#a9ccdb;stroke-miterlimit:10" />
		<line
   stroke-miterlimit="10"
   x1="448"
   y1="0"
   x2="448"
   y2="512"
   id="line62"
   style="fill:none;stroke:#a9ccdb;stroke-miterlimit:10" />
		<line
   stroke-miterlimit="10"
   x1="480"
   y1="0"
   x2="480"
   y2="512"
   id="line64"
   style="fill:none;stroke:#a9ccdb;stroke-miterlimit:10" />
	</g>  
                       
    
        	 
<path
   glyph-name="e"
   unicode="e"
   horiz-adv-x="491"
   style="fill:#a74aac;fill-opacity:0.7461929;stroke-width:1.07151937"
   d="m 302.27118,-44.484446 -55.03429,1.690456 c -15.8712,5.087502 -20.65058,2.365118 -32.36259,7.383012 -12.29101,5.265956 -28.95253,16.130758 -40.15921,23.440198 -19.46424,18.1752 -37.88553,38.9843 -54.22277,60.76703 -12.33623,16.44812 -23.48418,33.45141 -32.99558,50.29502 -10.45578,19.20375 -23.5975,39.16005 -32.00728,59.00054 -9.70323,22.89198 -14.47145,45.62979 -23.80174,66.87964 -5.01485,12.82433 -21.63647,29.5895 -26.50369,40.89262 -4.21973,9.79941 -2.50652,12.30617 -6.20064,23.14479 -3.78125,11.06833 -11.74625,12.89883 -15.47286,23.23453 -3.98276,11.04608 -1.23882,35.98735 -4.72349,44.96619 -3.31519,7.56967 -14.13772,10.08109 -20.17442,20.21865 -5.2488,8.81442 1.52423,24.96714 -5.044961,35.27572 -7.55284,11.852 -25.576768,20.83447 -26.558091,25.93064 -2.098174,10.8963 -2.415126,29.90901 -0.595289,35.70382 2.785113,8.86891 12.129932,22.43041 26.358849,23.91486 4.962489,0.51773 20.259082,1.60365 30.296662,-2.24588 9.92381,-3.80593 22.14835,-8.64913 29.36783,-12.36 21.80775,-11.20947 25.52339,-23.51167 42.30066,-24.67496 5.65399,-0.39204 0.21413,-12.51905 8.4377,-16.51377 6.46366,-3.13978 17.04251,-0.40943 20.31274,0.71602 3.34853,7.62691 3.07098,16.24859 1.56335,24.81527 -2.25459,12.81113 -7.26,25.49922 -7.0027,34.55319 0.91637,14.91643 9.9384,20.78723 16.28652,26.85783 6.0505,5.78604 12.58789,7.8772 24.6053,7.87072 26.25442,-0.0141 62.28114,-16.74716 98.63475,-45.81198 4.62923,-3.7011 4.02587,-27.24503 19.72238,-43.66636 7.55597,-7.90487 17.31729,-0.39841 28.98989,-6.84936 7.90365,-4.36801 24.02461,-7.22365 31.54234,-16.48663 14.99899,-10.58905 33.25522,-23.3376 45.6574,-37.38021 8.41582,-6.30607 17.14198,-16.34924 25.3616,-27.77962 9.39973,-13.72765 22.77817,-29.75753 26.93103,-44.43623 4.17511,-14.75754 13.93308,-28.16898 16.09567,-43.88653 2.3113,-16.99495 7.18472,-32.81321 7.15505,-48.24911 0,-6.3807 -0.69919,-28.95808 -5.54343,-31.71907 -4.36289,-2.48669 -14.89823,-10.26848 -28.66079,-10.12954 -23.96128,0.24211 -44.80568,2.49982 -107.78055,0.66569 -16.25624,0.18079 -20.81337,-6.30388 -36.34826,-6.18723 -19.74432,0.14824 -49.23038,-0.28228 -66.88387,0.0986 -2.14697,-18.5168 5.31009,-9.52573 6.79625,-24.97917 1.38452,-14.39637 4.14956,-28.34897 7.92997,-43.5077 4.21029,-12.22223 10.91476,-25.97751 18.68323,-38.74941 9.38835,-15.01716 20.00784,-28.10697 32.20575,-38.77203 9.04769,-7.91069 18.9638,-14.48734 29.89007,-19.52696 13.11734,-5.85948 22.56805,-5.38797 25.12132,-6.69641 9.14351,-7.51263 21.02369,-18.15121 23.37414,-28.409829 1.77924,-7.765964 -1.07906,-13.48777 -15.54395,-19.297047 z M 288.78068,341.4261 c -19.71163,25.66171 -92.6253,18.93692 -97.6848,15.9118 -7.76329,-1.51416 -22.67382,-5.86733 -31.14967,-11.9772 -12.1276,-8.74239 -14.58636,-6.2309 -29.39875,-15.2308 -8.05335,-4.89317 -18.06831,-9.04287 -27.41914,-11.38822 -9.01102,-7.09392 -7.67484,-23.82073 -7.67484,-23.82073 2.91349,-6.34465 14.5223,-10.39835 15.8494,-15.26857 2.07506,-8.52588 33.38154,-37.45721 34.35718,-45.10778 0.44077,-3.45638 0.94944,-5.9201 3.21718,-6.57491 5.40953,-1.25132 31.34645,-0.0775 37.76112,0.11097 16.65552,0.48931 70.77544,6.3971 87.785,6.87344 23.77217,0.66574 48.35041,-0.15309 52.5886,0.42023 4.54565,0.61492 5.84283,0.66544 7.98804,3.62567 0.43468,1.46462 1.61738,3.27687 1.90567,4.96172 3.90572,22.83172 -38.19366,83.38741 -48.12499,97.46438 z"
   id="path4561"
   inkscape:connector-curvature="0" />
   
</svg>