<?xml version="1.0" encoding="UTF-8" standalone="no"?>
<svg
   xmlns:dc="http://purl.org/dc/elements/1.1/"
   xmlns:cc="http://creativecommons.org/ns#"
   xmlns:rdf="http://www.w3.org/1999/02/22-rdf-syntax-ns#"
   xmlns:svg="http://www.w3.org/2000/svg"
   xmlns="http://www.w3.org/2000/svg"
   xmlns:sodipodi="http://sodipodi.sourceforge.net/DTD/sodipodi-0.dtd"
   xmlns:inkscape="http://www.inkscape.org/namespaces/inkscape"
   version="1.1"
   id="Layer_1"
   x="0px"
   y="0px"
   width="1066.6666"
   height="1092.2667"
   viewBox="0 0 1000 1024"
   enable-background="new 0 0 512 512"
   xml:space="preserve"
   inkscape:version="0.92.1 r15371"
   sodipodi:docname="e-e.svg"><title
   id="title3743">Sinai 357</title><metadata
   id="metadata72"><rdf:RDF><cc:Work
       rdf:about=""><dc:format>image/svg+xml</dc:format><dc:type
         rdf:resource="http://purl.org/dc/dcmitype/StillImage" /><dc:title>Sinai 357</dc:title><dc:date>2017</dc:date><dc:creator><cc:Agent><dc:title>Celeste Claire Horner</dc:title></cc:Agent></dc:creator><dc:publisher><cc:Agent><dc:title>beitdina.net</dc:title></cc:Agent></dc:publisher></cc:Work></rdf:RDF></metadata><defs
   id="defs70" /><sodipodi:namedview
   pagecolor="#ffffff"
   bordercolor="#666666"
   borderopacity="1"
   objecttolerance="10"
   gridtolerance="10"
   guidetolerance="10"
   inkscape:pageopacity="0"
   inkscape:pageshadow="2"
   inkscape:window-width="1152"
   inkscape:window-height="814"
   id="namedview68"
   showgrid="false"
   inkscape:zoom="0.36045873"
   inkscape:cx="728.71118"
   inkscape:cy="194.67088"
   inkscape:window-x="-8"
   inkscape:window-y="-8"
   inkscape:window-maximized="1"
   inkscape:current-layer="Layer_1" />
   
	<g
   id="Grid"
   transform="matrix(1.9502951,0,0,-1.9942504,5.1344581,1028.3982)">
		<rect
   x="0"
   stroke-miterlimit="10"
   width="512"
   height="512"
   id="rect4"
   y="0"
   style="fill:none;stroke:#a9ccdb;stroke-miterlimit:10" />
		<line
   stroke-miterlimit="10"
   x1="0"
   y1="32"
   x2="512"
   y2="32"
   id="line6"
   style="fill:none;stroke:#a9ccdb;stroke-miterlimit:10" />
		<line
   stroke-miterlimit="10"
   x1="0"
   y1="64"
   x2="512"
   y2="64"
   id="line8"
   style="fill:none;stroke:#a9ccdb;stroke-miterlimit:10" />
		<line
   stroke-miterlimit="10"
   x1="0"
   y1="96"
   x2="512"
   y2="96"
   id="line10"
   style="fill:none;stroke:#a9ccdb;stroke-miterlimit:10" />
		<line
   stroke-miterlimit="10"
   x1="0"
   y1="128"
   x2="512"
   y2="128"
   id="line12"
   style="fill:none;stroke:#a9ccdb;stroke-miterlimit:10" />
		<line
   stroke-miterlimit="10"
   x1="0"
   y1="160"
   x2="512"
   y2="160"
   id="line14"
   style="fill:none;stroke:#a9ccdb;stroke-miterlimit:10" />
		<line
   stroke-miterlimit="10"
   x1="0"
   y1="192"
   x2="512"
   y2="192"
   id="line16"
   style="fill:none;stroke:#a9ccdb;stroke-miterlimit:10" />
		<line
   stroke-miterlimit="10"
   x1="0"
   y1="224"
   x2="512"
   y2="224"
   id="line18"
   style="fill:none;stroke:#a9ccdb;stroke-miterlimit:10" />
		<line
   stroke-miterlimit="10"
   x1="0"
   y1="256"
   x2="512"
   y2="256"
   id="line20"
   style="fill:none;stroke:#a9ccdb;stroke-miterlimit:10" />
		<line
   stroke-miterlimit="10"
   x1="0"
   y1="288"
   x2="512"
   y2="288"
   id="line22"
   style="fill:none;stroke:#a9ccdb;stroke-miterlimit:10" />
		<line
   stroke-miterlimit="10"
   x1="0"
   y1="320"
   x2="512"
   y2="320"
   id="line24"
   style="fill:none;stroke:#a9ccdb;stroke-miterlimit:10" />
		<line
   stroke-miterlimit="10"
   x1="0"
   y1="352"
   x2="512"
   y2="352"
   id="line26"
   style="fill:none;stroke:#a9ccdb;stroke-miterlimit:10" />
		<line
   stroke-miterlimit="10"
   x1="0"
   y1="384"
   x2="512"
   y2="384"
   id="line28"
   style="fill:none;stroke:#a9ccdb;stroke-miterlimit:10" />
		<line
   stroke-miterlimit="10"
   x1="0"
   y1="416"
   x2="512"
   y2="416"
   id="line30"
   style="fill:none;stroke:#a9ccdb;stroke-miterlimit:10" />
		<line
   stroke-miterlimit="10"
   x1="0"
   y1="448"
   x2="512"
   y2="448"
   id="line32"
   style="fill:none;stroke:#ff0000;stroke-miterlimit:10" />
		<line
   stroke-miterlimit="10"
   x1="0"
   y1="480"
   x2="512"
   y2="480"
   id="line34"
   style="fill:none;stroke:#a9ccdb;stroke-miterlimit:10" />
		<line
   stroke-miterlimit="10"
   x1="32"
   y1="0"
   x2="32"
   y2="512"
   id="line36"
   style="fill:none;stroke:#a9ccdb;stroke-miterlimit:10" />
		<line
   stroke-miterlimit="10"
   x1="64"
   y1="0"
   x2="64"
   y2="512"
   id="line38"
   style="fill:none;stroke:#a9ccdb;stroke-miterlimit:10" />
		<line
   stroke-miterlimit="10"
   x1="96"
   y1="0"
   x2="96"
   y2="512"
   id="line40"
   style="fill:none;stroke:#a9ccdb;stroke-miterlimit:10" />
		<line
   stroke-miterlimit="10"
   x1="128"
   y1="0"
   x2="128"
   y2="512"
   id="line42"
   style="fill:none;stroke:#a9ccdb;stroke-miterlimit:10" />
		<line
   stroke-miterlimit="10"
   x1="160"
   y1="0"
   x2="160"
   y2="512"
   id="line44"
   style="fill:none;stroke:#a9ccdb;stroke-miterlimit:10" />
		<line
   stroke-miterlimit="10"
   x1="192"
   y1="0"
   x2="192"
   y2="512"
   id="line46"
   style="fill:none;stroke:#a9ccdb;stroke-miterlimit:10" />
		<line
   stroke-miterlimit="10"
   x1="224"
   y1="0"
   x2="224"
   y2="512"
   id="line48"
   style="fill:none;stroke:#a9ccdb;stroke-miterlimit:10" />
		<line
   stroke-miterlimit="10"
   x1="256"
   y1="0"
   x2="256"
   y2="512"
   id="line50"
   style="fill:none;stroke:#a9ccdb;stroke-miterlimit:10" />
		<line
   stroke-miterlimit="10"
   x1="288"
   y1="0"
   x2="288"
   y2="512"
   id="line52"
   style="fill:none;stroke:#a9ccdb;stroke-miterlimit:10" />
		<line
   stroke-miterlimit="10"
   x1="320"
   y1="0"
   x2="320"
   y2="512"
   id="line54"
   style="fill:none;stroke:#a9ccdb;stroke-miterlimit:10" />
		<line
   stroke-miterlimit="10"
   x1="352"
   y1="0"
   x2="352"
   y2="512"
   id="line56"
   style="fill:none;stroke:#a9ccdb;stroke-miterlimit:10" />
		<line
   stroke-miterlimit="10"
   x1="384"
   y1="0"
   x2="384"
   y2="512"
   id="line58"
   style="fill:none;stroke:#a9ccdb;stroke-miterlimit:10" />
		<line
   stroke-miterlimit="10"
   x1="416"
   y1="0"
   x2="416"
   y2="512"
   id="line60"
   style="fill:none;stroke:#a9ccdb;stroke-miterlimit:10" />
		<line
   stroke-miterlimit="10"
   x1="448"
   y1="0"
   x2="448"
   y2="512"
   id="line62"
   style="fill:none;stroke:#a9ccdb;stroke-miterlimit:10" />
		<line
   stroke-miterlimit="10"
   x1="480"
   y1="0"
   x2="480"
   y2="512"
   id="line64"
   style="fill:none;stroke:#a9ccdb;stroke-miterlimit:10" />
	</g>  
                       
       	 
<path
   glyph-name="e"
   unicode="e"
   horiz-adv-x="1159"
   style="fill:#a74aac;fill-opacity:0.7461929;stroke-width:1.65962231"
   d="m 686.63365,76.786294 -90.39739,2.46888 c -26.06948,7.4302 -33.91991,3.45421 -53.15765,10.78275 -20.18878,7.69083 -47.5564,23.558676 -65.9641,34.233976 -31.97128,26.54453 -62.22944,56.93583 -89.06442,88.74911 -20.26306,24.02217 -38.57428,48.85515 -54.19737,73.45493 -17.1743,28.04672 -38.76042,57.19251 -52.57404,86.16918 -15.93817,33.43331 -23.77029,66.64146 -39.09589,97.67646 -8.23722,18.7297 -35.53931,43.21491 -43.53403,59.72291 -6.93118,14.31185 -4.11712,17.97293 -10.18495,33.80253 -6.21095,16.16509 -19.29398,18.8385 -25.41518,33.93359 -6.54194,16.1326 -2.03484,52.55886 -7.75863,65.67228 -5.44542,11.05537 -23.22213,14.72325 -33.1378,29.52897 -8.62149,12.87329 2.50365,36.46404 -8.28667,51.51952 -12.40603,17.30963 -42.011499,30.42836 -43.623385,37.87122 -3.446386,15.91384 -3.967001,43.68155 -0.977801,52.14475 4.574729,12.95288 19.924199,32.7592 43.296116,34.92721 8.15121,0.75613 33.27685,2.3421 49.76423,-3.28007 16.3005,-5.55849 36.3801,-12.63188 48.23857,-18.05155 35.82064,-16.37121 41.92381,-34.33834 69.48156,-36.03731 9.28705,-0.57257 0.35173,-18.28384 13.85947,-24.11805 10.61699,-4.58559 27.99343,-0.59797 33.36499,1.04573 5.50018,11.13896 5.04429,23.73077 2.56791,36.24224 -3.70331,18.71041 -11.92502,37.24113 -11.50239,50.46429 1.50519,21.78516 16.32447,30.35935 26.75166,39.22536 9.93834,8.45039 20.67643,11.50449 40.4158,11.49503 43.12458,-0.0206 102.3008,-24.45891 162.01396,-66.90753 7.60381,-5.40539 6.61276,-39.79086 32.39529,-63.77391 12.41118,-11.54491 28.44477,-0.58186 47.61777,-10.00336 12.98226,-6.3794 39.46198,-10.55 51.81034,-24.07841 24.63681,-15.46511 54.62385,-34.08413 74.99524,-54.5931 13.82353,-9.20989 28.1568,-23.87776 41.65806,-40.57162 15.43967,-20.04897 37.41463,-43.46031 44.23596,-64.89827 6.8579,-21.55312 22.886,-41.14028 26.43818,-64.09546 3.79646,-24.82081 11.80137,-47.92308 11.75264,-70.46692 0,-9.3189 -1.14847,-42.29274 -9.10544,-46.32511 -7.16633,-3.63177 -24.47131,-14.99692 -47.07721,-14.794 -39.35795,0.3536 -73.59623,3.65094 -177.03653,0.97222 -26.70193,0.26405 -34.1873,-9.20669 -59.70437,-9.03633 -32.43133,0.2165 -80.86408,-0.41227 -109.86108,0.144 -3.52654,-27.04343 8.72216,-13.91215 11.16328,-36.4816 2.27416,-21.02563 6.81591,-41.40315 13.02548,-63.54219 6.91568,-17.85034 17.92821,-37.93966 30.68841,-56.59278 15.42098,-21.93228 32.86418,-41.0497 52.90004,-56.62582 14.86141,-11.55342 31.14926,-21.1585 49.09637,-28.51877 21.54608,-8.55766 37.06948,-7.86903 41.26339,-9.77998 15.01881,-10.97205 34.53278,-26.5095 38.39354,-41.49202 2.92253,-11.342046 -1.77242,-19.698636 -25.53193,-28.182976 z M 664.47463,640.40141 c -32.37763,37.47845 -152.14306,27.65702 -160.45362,23.2389 -12.7517,-2.21141 -37.24322,-8.56913 -51.16534,-17.49248 -19.92038,-12.7681 -23.95904,-9.10011 -48.28935,-22.2443 -13.22816,-7.14639 -29.67837,-13.20694 -45.03772,-16.63228 -14.80118,-10.36054 -12.60643,-34.78974 -12.60643,-34.78974 4.7856,-9.26624 23.85382,-15.18659 26.03368,-22.29945 3.40841,-12.45189 54.83133,-54.70555 56.43388,-65.87907 0.724,-5.04798 1.55953,-8.6462 5.28443,-9.60254 8.8855,-1.82752 51.48858,-0.11314 62.02509,0.16208 27.35776,0.71462 116.25324,9.34284 144.19255,10.03853 39.04733,0.97229 79.41868,-0.22359 86.38018,0.61374 7.46652,0.89807 9.59723,0.97186 13.12087,5.29521 0.71399,2.13905 2.65665,4.78582 3.13018,7.2465 6.41541,33.3453 -62.73555,121.78575 -79.0484,142.3449 z"
   id="path4561" />
   
</svg>