<?xml version="1.0" encoding="UTF-8" standalone="no"?>
<svg
   xmlns:dc="http://purl.org/dc/elements/1.1/"
   xmlns:cc="http://creativecommons.org/ns#"
   xmlns:rdf="http://www.w3.org/1999/02/22-rdf-syntax-ns#"
   xmlns:svg="http://www.w3.org/2000/svg"
   xmlns="http://www.w3.org/2000/svg"
   xmlns:sodipodi="http://sodipodi.sourceforge.net/DTD/sodipodi-0.dtd"
   xmlns:inkscape="http://www.inkscape.org/namespaces/inkscape"
   version="1.1"
   id="Layer_1"
   x="0px"
   y="0px"
   width="1066.6666"
   height="1092.2667"
   viewBox="0 0 1000 1024"
   enable-background="new 0 0 512 512"
   xml:space="preserve"
   inkscape:version="0.92.1 r15371"
   sodipodi:docname="f-f.svg"><title
   id="title3743">Sinai 357</title><metadata
   id="metadata72"><rdf:RDF><cc:Work
       rdf:about=""><dc:format>image/svg+xml</dc:format><dc:type
         rdf:resource="http://purl.org/dc/dcmitype/StillImage" /><dc:title>Sinai 357</dc:title><dc:date>2017</dc:date><dc:creator><cc:Agent><dc:title>Celeste Claire Horner</dc:title></cc:Agent></dc:creator><dc:publisher><cc:Agent><dc:title>beitdina.net</dc:title></cc:Agent></dc:publisher></cc:Work></rdf:RDF></metadata><defs
   id="defs70" /><sodipodi:namedview
   pagecolor="#ffffff"
   bordercolor="#666666"
   borderopacity="1"
   objecttolerance="10"
   gridtolerance="10"
   guidetolerance="10"
   inkscape:pageopacity="0"
   inkscape:pageshadow="2"
   inkscape:window-width="1152"
   inkscape:window-height="814"
   id="namedview68"
   showgrid="false"
   inkscape:zoom="0.50976562"
   inkscape:cx="366.31539"
   inkscape:cy="640.09923"
   inkscape:window-x="-8"
   inkscape:window-y="-8"
   inkscape:window-maximized="1"
   inkscape:current-layer="Layer_1" />
   
	<g
   id="Grid"
   transform="matrix(1.9502951,0,0,-1.9942504,5.1344581,1028.3982)">
		<rect
   x="0"
   stroke-miterlimit="10"
   width="512"
   height="512"
   id="rect4"
   y="0"
   style="fill:none;stroke:#a9ccdb;stroke-miterlimit:10" />
		<line
   stroke-miterlimit="10"
   x1="0"
   y1="32"
   x2="512"
   y2="32"
   id="line6"
   style="fill:none;stroke:#a9ccdb;stroke-miterlimit:10" />
		<line
   stroke-miterlimit="10"
   x1="0"
   y1="64"
   x2="512"
   y2="64"
   id="line8"
   style="fill:none;stroke:#a9ccdb;stroke-miterlimit:10" />
		<line
   stroke-miterlimit="10"
   x1="0"
   y1="96"
   x2="512"
   y2="96"
   id="line10"
   style="fill:none;stroke:#a9ccdb;stroke-miterlimit:10" />
		<line
   stroke-miterlimit="10"
   x1="0"
   y1="128"
   x2="512"
   y2="128"
   id="line12"
   style="fill:none;stroke:#a9ccdb;stroke-miterlimit:10" />
		<line
   stroke-miterlimit="10"
   x1="0"
   y1="160"
   x2="512"
   y2="160"
   id="line14"
   style="fill:none;stroke:#a9ccdb;stroke-miterlimit:10" />
		<line
   stroke-miterlimit="10"
   x1="0"
   y1="192"
   x2="512"
   y2="192"
   id="line16"
   style="fill:none;stroke:#a9ccdb;stroke-miterlimit:10" />
		<line
   stroke-miterlimit="10"
   x1="0"
   y1="224"
   x2="512"
   y2="224"
   id="line18"
   style="fill:none;stroke:#a9ccdb;stroke-miterlimit:10" />
		<line
   stroke-miterlimit="10"
   x1="0"
   y1="256"
   x2="512"
   y2="256"
   id="line20"
   style="fill:none;stroke:#a9ccdb;stroke-miterlimit:10" />
		<line
   stroke-miterlimit="10"
   x1="0"
   y1="288"
   x2="512"
   y2="288"
   id="line22"
   style="fill:none;stroke:#a9ccdb;stroke-miterlimit:10" />
		<line
   stroke-miterlimit="10"
   x1="0"
   y1="320"
   x2="512"
   y2="320"
   id="line24"
   style="fill:none;stroke:#a9ccdb;stroke-miterlimit:10" />
		<line
   stroke-miterlimit="10"
   x1="0"
   y1="352"
   x2="512"
   y2="352"
   id="line26"
   style="fill:none;stroke:#a9ccdb;stroke-miterlimit:10" />
		<line
   stroke-miterlimit="10"
   x1="0"
   y1="384"
   x2="512"
   y2="384"
   id="line28"
   style="fill:none;stroke:#a9ccdb;stroke-miterlimit:10" />
		<line
   stroke-miterlimit="10"
   x1="0"
   y1="416"
   x2="512"
   y2="416"
   id="line30"
   style="fill:none;stroke:#a9ccdb;stroke-miterlimit:10" />
		<line
   stroke-miterlimit="10"
   x1="0"
   y1="448"
   x2="512"
   y2="448"
   id="line32"
   style="fill:none;stroke:#ff0000;stroke-miterlimit:10" />
		<line
   stroke-miterlimit="10"
   x1="0"
   y1="480"
   x2="512"
   y2="480"
   id="line34"
   style="fill:none;stroke:#a9ccdb;stroke-miterlimit:10" />
		<line
   stroke-miterlimit="10"
   x1="32"
   y1="0"
   x2="32"
   y2="512"
   id="line36"
   style="fill:none;stroke:#a9ccdb;stroke-miterlimit:10" />
		<line
   stroke-miterlimit="10"
   x1="64"
   y1="0"
   x2="64"
   y2="512"
   id="line38"
   style="fill:none;stroke:#a9ccdb;stroke-miterlimit:10" />
		<line
   stroke-miterlimit="10"
   x1="96"
   y1="0"
   x2="96"
   y2="512"
   id="line40"
   style="fill:none;stroke:#a9ccdb;stroke-miterlimit:10" />
		<line
   stroke-miterlimit="10"
   x1="128"
   y1="0"
   x2="128"
   y2="512"
   id="line42"
   style="fill:none;stroke:#a9ccdb;stroke-miterlimit:10" />
		<line
   stroke-miterlimit="10"
   x1="160"
   y1="0"
   x2="160"
   y2="512"
   id="line44"
   style="fill:none;stroke:#a9ccdb;stroke-miterlimit:10" />
		<line
   stroke-miterlimit="10"
   x1="192"
   y1="0"
   x2="192"
   y2="512"
   id="line46"
   style="fill:none;stroke:#a9ccdb;stroke-miterlimit:10" />
		<line
   stroke-miterlimit="10"
   x1="224"
   y1="0"
   x2="224"
   y2="512"
   id="line48"
   style="fill:none;stroke:#a9ccdb;stroke-miterlimit:10" />
		<line
   stroke-miterlimit="10"
   x1="256"
   y1="0"
   x2="256"
   y2="512"
   id="line50"
   style="fill:none;stroke:#a9ccdb;stroke-miterlimit:10" />
		<line
   stroke-miterlimit="10"
   x1="288"
   y1="0"
   x2="288"
   y2="512"
   id="line52"
   style="fill:none;stroke:#a9ccdb;stroke-miterlimit:10" />
		<line
   stroke-miterlimit="10"
   x1="320"
   y1="0"
   x2="320"
   y2="512"
   id="line54"
   style="fill:none;stroke:#a9ccdb;stroke-miterlimit:10" />
		<line
   stroke-miterlimit="10"
   x1="352"
   y1="0"
   x2="352"
   y2="512"
   id="line56"
   style="fill:none;stroke:#a9ccdb;stroke-miterlimit:10" />
		<line
   stroke-miterlimit="10"
   x1="384"
   y1="0"
   x2="384"
   y2="512"
   id="line58"
   style="fill:none;stroke:#a9ccdb;stroke-miterlimit:10" />
		<line
   stroke-miterlimit="10"
   x1="416"
   y1="0"
   x2="416"
   y2="512"
   id="line60"
   style="fill:none;stroke:#a9ccdb;stroke-miterlimit:10" />
		<line
   stroke-miterlimit="10"
   x1="448"
   y1="0"
   x2="448"
   y2="512"
   id="line62"
   style="fill:none;stroke:#a9ccdb;stroke-miterlimit:10" />
		<line
   stroke-miterlimit="10"
   x1="480"
   y1="0"
   x2="480"
   y2="512"
   id="line64"
   style="fill:none;stroke:#a9ccdb;stroke-miterlimit:10" />
	</g>
	

    
         


<g
   id="g206"
   transform="matrix(0.93749999,0,0,0.93749999,2191.2841,695.76495)"><g
   id="g2991"
   transform="matrix(4.4637923,0,0,4.9975799,-3306.2811,-1632.7003)"><g
     id="g4784" /><flowRoot
     xml:space="preserve"
     id="flowRoot4904"
     style="font-style:normal;font-variant:normal;font-weight:normal;font-stretch:normal;line-height:0.01%;font-family:Arial;-inkscape-font-specification:Arial;text-align:start;letter-spacing:0px;word-spacing:0px;writing-mode:lr-tb;text-anchor:start;fill:#000000;fill-opacity:1;stroke:none"><flowRegion
       id="flowRegion4906"><rect
         id="rect4908"
         width="594.73566"
         height="32.045979"
         x="31.103449"
         y="186.87357"
         style="font-size:28px" /></flowRegion><flowPara
       style="font-size:28px;line-height:1"
       id="flowPara4910"> </flowPara></flowRoot></g>
</g>
    
    
 		 
		 <path
   glyph-name="f"
   unicode="f"
   horiz-adv-x="520"
   d="m 320.54452,38.145845 c -10.9244,9.95747 -23.91489,14.58918 -37.4728,16.72354 -33.76326,3.72468 -72.66525,5.50507 -103.35395,4.1086 -17.47767,-0.8712 -37.02721,-3.3536 -52.90397,-1.73222 -16.72549,1.55338 -31.807435,14.34611 -36.100875,22.62811 -5.30479,10.95127 -2.49214,23.102495 2.29999,34.432325 13.229275,28.65044 28.653595,148.47093 41.072165,173.77962 4.52232,9.21636 6.56981,20.9705 11.79037,30.4567 4.91886,8.91545 6.77499,13.08204 11.04214,22.45748 22.62523,-0.0545 43.4669,-0.0283 64.15133,-0.12475 17.56695,-0.0819 35.0205,-0.25231 53.35687,-0.63565 6.74112,-0.14532 13.43664,-0.33063 20.11027,-0.55991 19.59124,5.2684 36.53847,50.80945 36.75029,52.64449 -12.45005,4.71099 -43.77778,-10.9813 -57.15584,-10.53687 -20.53809,0.6795 -32.84094,0.63184 -52.70119,0.92474 -35.18023,0.52208 -46.52075,1.62941 -45.94757,2.82028 13.56634,27.20308 29.50323,59.59541 45.48582,90.04411 10.03518,19.11819 20.08839,37.47014 29.58412,53.29021 6.30232,7.55228 10.60816,13.60724 20.53989,18.35918 29.33805,11.69292 77.60972,10.78328 103.17645,0.39067 19.05543,-9.81742 27.41714,-23.24754 29.66103,-35.65397 2.80727,-15.48606 -0.82449,-24.27174 -12.44505,-33.13307 -3.11457,-2.37502 -9.07681,-4.42459 -12.92268,-7.0059 -12.54121,-8.83982 -25.77484,-11.02414 -28.76582,-23.53533 -1.06046,-7.27747 0.25347,-15.20016 4.36779,-21.45755 6.7672,-8.38847 14.74701,-12.30012 24.68062,-14.63433 8.18111,-1.9224 17.68747,-2.77484 28.93309,-4.17697 11.00696,-1.30492 22.99258,1.03665 36.27176,6.18887 12.72942,6.49544 14.6432,17.67359 13.69448,28.28493 -0.81408,9.73144 -2.02757,24.30287 -2.88377,35.40747 -0.94913,11.72891 1.4212,24.62918 0.67528,35.69954 -1.05479,11.35791 -3.39635,23.15068 -7.22487,33.84801 -2.55584,7.28667 -12.79269,15.34836 -18.78811,20.95135 -25.47761,22.07812 -70.06914,23.99859 -104.66815,26.35244 -20.83179,1.43487 -36.56738,1.27549 -51.59104,-0.2243 -19.10763,-1.17847 -37.12908,-5.1714 -51.09868,-11.64097 -18.89163,-8.74905 -31.64931,-21.60952 -41.63415,-34.24351 -46.32655,-59.52295 -73.31505,-162.88794 -99.797018,-159.97525 -6.9564,0.76518 -20.958306,1.5598 -35.427139,1.4163 -4.35552,0.26184 -7.318612,-0.75768 -8.496787,-1.4345 -4.401309,-1.52285 -6.146949,-5.67109 -6.572115,-8.29164 -4.021925,-8.86085 -11.406596,-37.39882 -4.963694,-37.71311 21.314807,0.41552 12.789387,-0.0921 24.900095,0.57775 9.585886,0.53012 14.640664,0.10053 16.457421,-1.65578 0.781388,-7.52185 -3.851403,-14.7724 -5.665875,-22.91214 -7.047302,-31.61427 -47.817108,-193.58405 -49.00853,-214.9522 -0.860964,-7.916275 -0.0098,-16.286585 2.362136,-24.455095 1.622179,-5.58647 3.955697,-11.07871 6.940046,-16.26733 4.800311,-8.3473 11.283335,-15.90804 19.19555,-21.80936 19.225396,-19.96189 65.1328,-29.9635 89.49949,-33.8288598 26.26314,-4.02935 50.72334,-10.06028 79.17448,-18.2325002 31.74373,-9.38344 97.98214,-20.64633 119.62431,-15.73509 5.96135,1.35258 10.01272,3.20902 11.31272,5.54739 5.63675,7.12592 10.22689,16.9286002 10.05274,25.1592202 -0.28044,5.88152 -24.07674,26.9155198 -29.57289,34.0650198 h 8.2e-4 z"
   id="path47"
   inkscape:connector-curvature="0"
   sodipodi:nodetypes="ccccccsccsccccccsccccscccscccccccccsccccccccscccccccccccc"
   style="stroke-width:0.6775521" />
   
</svg>