<?xml version="1.0" encoding="UTF-8" standalone="no"?>
<svg
   xmlns:dc="http://purl.org/dc/elements/1.1/"
   xmlns:cc="http://creativecommons.org/ns#"
   xmlns:rdf="http://www.w3.org/1999/02/22-rdf-syntax-ns#"
   xmlns:svg="http://www.w3.org/2000/svg"
   xmlns="http://www.w3.org/2000/svg"
   xmlns:sodipodi="http://sodipodi.sourceforge.net/DTD/sodipodi-0.dtd"
   xmlns:inkscape="http://www.inkscape.org/namespaces/inkscape"
   version="1.1"
   id="Layer_1"
   x="0px"
   y="0px"
   width="1066.6666"
   height="1092.2667"
   viewBox="0 0 1000 1024"
   enable-background="new 0 0 512 512"
   xml:space="preserve"
   inkscape:version="0.92.1 r15371"
   sodipodi:docname="f-f.svg"><title
   id="title3743">Sinai 357</title><metadata
   id="metadata72"><rdf:RDF><cc:Work
       rdf:about=""><dc:format>image/svg+xml</dc:format><dc:type
         rdf:resource="http://purl.org/dc/dcmitype/StillImage" /><dc:title>Sinai 357</dc:title><dc:date>2017</dc:date><dc:creator><cc:Agent><dc:title>Celeste Claire Horner</dc:title></cc:Agent></dc:creator><dc:publisher><cc:Agent><dc:title>beitdina.net</dc:title></cc:Agent></dc:publisher></cc:Work></rdf:RDF></metadata><defs
   id="defs70" /><sodipodi:namedview
   pagecolor="#ffffff"
   bordercolor="#666666"
   borderopacity="1"
   objecttolerance="10"
   gridtolerance="10"
   guidetolerance="10"
   inkscape:pageopacity="0"
   inkscape:pageshadow="2"
   inkscape:window-width="1152"
   inkscape:window-height="814"
   id="namedview68"
   showgrid="false"
   inkscape:zoom="0.25488281"
   inkscape:cx="-316.81237"
   inkscape:cy="888.54604"
   inkscape:window-x="-8"
   inkscape:window-y="-8"
   inkscape:window-maximized="1"
   inkscape:current-layer="Layer_1" />
   
	<g
   id="Grid"
   transform="matrix(1.9502951,0,0,-1.9942504,5.1344581,1028.3982)">
		<rect
   x="0"
   stroke-miterlimit="10"
   width="512"
   height="512"
   id="rect4"
   y="0"
   style="fill:none;stroke:#a9ccdb;stroke-miterlimit:10" />
		<line
   stroke-miterlimit="10"
   x1="0"
   y1="32"
   x2="512"
   y2="32"
   id="line6"
   style="fill:none;stroke:#a9ccdb;stroke-miterlimit:10" />
		<line
   stroke-miterlimit="10"
   x1="0"
   y1="64"
   x2="512"
   y2="64"
   id="line8"
   style="fill:none;stroke:#a9ccdb;stroke-miterlimit:10" />
		<line
   stroke-miterlimit="10"
   x1="0"
   y1="96"
   x2="512"
   y2="96"
   id="line10"
   style="fill:none;stroke:#a9ccdb;stroke-miterlimit:10" />
		<line
   stroke-miterlimit="10"
   x1="0"
   y1="128"
   x2="512"
   y2="128"
   id="line12"
   style="fill:none;stroke:#a9ccdb;stroke-miterlimit:10" />
		<line
   stroke-miterlimit="10"
   x1="0"
   y1="160"
   x2="512"
   y2="160"
   id="line14"
   style="fill:none;stroke:#a9ccdb;stroke-miterlimit:10" />
		<line
   stroke-miterlimit="10"
   x1="0"
   y1="192"
   x2="512"
   y2="192"
   id="line16"
   style="fill:none;stroke:#a9ccdb;stroke-miterlimit:10" />
		<line
   stroke-miterlimit="10"
   x1="0"
   y1="224"
   x2="512"
   y2="224"
   id="line18"
   style="fill:none;stroke:#a9ccdb;stroke-miterlimit:10" />
		<line
   stroke-miterlimit="10"
   x1="0"
   y1="256"
   x2="512"
   y2="256"
   id="line20"
   style="fill:none;stroke:#a9ccdb;stroke-miterlimit:10" />
		<line
   stroke-miterlimit="10"
   x1="0"
   y1="288"
   x2="512"
   y2="288"
   id="line22"
   style="fill:none;stroke:#a9ccdb;stroke-miterlimit:10" />
		<line
   stroke-miterlimit="10"
   x1="0"
   y1="320"
   x2="512"
   y2="320"
   id="line24"
   style="fill:none;stroke:#a9ccdb;stroke-miterlimit:10" />
		<line
   stroke-miterlimit="10"
   x1="0"
   y1="352"
   x2="512"
   y2="352"
   id="line26"
   style="fill:none;stroke:#a9ccdb;stroke-miterlimit:10" />
		<line
   stroke-miterlimit="10"
   x1="0"
   y1="384"
   x2="512"
   y2="384"
   id="line28"
   style="fill:none;stroke:#a9ccdb;stroke-miterlimit:10" />
		<line
   stroke-miterlimit="10"
   x1="0"
   y1="416"
   x2="512"
   y2="416"
   id="line30"
   style="fill:none;stroke:#a9ccdb;stroke-miterlimit:10" />
		<line
   stroke-miterlimit="10"
   x1="0"
   y1="448"
   x2="512"
   y2="448"
   id="line32"
   style="fill:none;stroke:#ff0000;stroke-miterlimit:10" />
		<line
   stroke-miterlimit="10"
   x1="0"
   y1="480"
   x2="512"
   y2="480"
   id="line34"
   style="fill:none;stroke:#a9ccdb;stroke-miterlimit:10" />
		<line
   stroke-miterlimit="10"
   x1="32"
   y1="0"
   x2="32"
   y2="512"
   id="line36"
   style="fill:none;stroke:#a9ccdb;stroke-miterlimit:10" />
		<line
   stroke-miterlimit="10"
   x1="64"
   y1="0"
   x2="64"
   y2="512"
   id="line38"
   style="fill:none;stroke:#a9ccdb;stroke-miterlimit:10" />
		<line
   stroke-miterlimit="10"
   x1="96"
   y1="0"
   x2="96"
   y2="512"
   id="line40"
   style="fill:none;stroke:#a9ccdb;stroke-miterlimit:10" />
		<line
   stroke-miterlimit="10"
   x1="128"
   y1="0"
   x2="128"
   y2="512"
   id="line42"
   style="fill:none;stroke:#a9ccdb;stroke-miterlimit:10" />
		<line
   stroke-miterlimit="10"
   x1="160"
   y1="0"
   x2="160"
   y2="512"
   id="line44"
   style="fill:none;stroke:#a9ccdb;stroke-miterlimit:10" />
		<line
   stroke-miterlimit="10"
   x1="192"
   y1="0"
   x2="192"
   y2="512"
   id="line46"
   style="fill:none;stroke:#a9ccdb;stroke-miterlimit:10" />
		<line
   stroke-miterlimit="10"
   x1="224"
   y1="0"
   x2="224"
   y2="512"
   id="line48"
   style="fill:none;stroke:#a9ccdb;stroke-miterlimit:10" />
		<line
   stroke-miterlimit="10"
   x1="256"
   y1="0"
   x2="256"
   y2="512"
   id="line50"
   style="fill:none;stroke:#a9ccdb;stroke-miterlimit:10" />
		<line
   stroke-miterlimit="10"
   x1="288"
   y1="0"
   x2="288"
   y2="512"
   id="line52"
   style="fill:none;stroke:#a9ccdb;stroke-miterlimit:10" />
		<line
   stroke-miterlimit="10"
   x1="320"
   y1="0"
   x2="320"
   y2="512"
   id="line54"
   style="fill:none;stroke:#a9ccdb;stroke-miterlimit:10" />
		<line
   stroke-miterlimit="10"
   x1="352"
   y1="0"
   x2="352"
   y2="512"
   id="line56"
   style="fill:none;stroke:#a9ccdb;stroke-miterlimit:10" />
		<line
   stroke-miterlimit="10"
   x1="384"
   y1="0"
   x2="384"
   y2="512"
   id="line58"
   style="fill:none;stroke:#a9ccdb;stroke-miterlimit:10" />
		<line
   stroke-miterlimit="10"
   x1="416"
   y1="0"
   x2="416"
   y2="512"
   id="line60"
   style="fill:none;stroke:#a9ccdb;stroke-miterlimit:10" />
		<line
   stroke-miterlimit="10"
   x1="448"
   y1="0"
   x2="448"
   y2="512"
   id="line62"
   style="fill:none;stroke:#a9ccdb;stroke-miterlimit:10" />
		<line
   stroke-miterlimit="10"
   x1="480"
   y1="0"
   x2="480"
   y2="512"
   id="line64"
   style="fill:none;stroke:#a9ccdb;stroke-miterlimit:10" />
	</g>
	

    
         


<g
   id="g206"
   transform="matrix(0.93749999,0,0,0.93749999,2191.2841,695.76495)"><g
   id="g2991"
   transform="matrix(4.4637923,0,0,4.9975799,-3306.2811,-1632.7003)"><g
     id="g4784" /><flowRoot
     xml:space="preserve"
     id="flowRoot4904"
     style="font-style:normal;font-variant:normal;font-weight:normal;font-stretch:normal;line-height:0.01%;font-family:Arial;-inkscape-font-specification:Arial;text-align:start;letter-spacing:0px;word-spacing:0px;writing-mode:lr-tb;text-anchor:start;fill:#000000;fill-opacity:1;stroke:none"><flowRegion
       id="flowRegion4906"><rect
         id="rect4908"
         width="594.73566"
         height="32.045979"
         x="31.103449"
         y="186.87357"
         style="font-size:28px" /></flowRegion><flowPara
       style="font-size:28px;line-height:1"
       id="flowPara4910"> </flowPara></flowRoot></g>
</g>
    
		 
		 <path
   glyph-name="f"
   unicode="f"
   horiz-adv-x="1159"
   d="m 396.075,197.00739 c -13.0479,16.97842 -28.5635,24.87591 -44.7568,28.5152 -40.3262,6.35092 -86.79,9.38665 -123.444,7.00554 -20.875,-1.48547 -44.2246,-5.71819 -63.1875,-2.95359 -19.9766,2.64865 -37.9902,24.46146 -43.1182,38.58303 -6.33594,18.67297 -2.97656,39.39193 2.74707,58.71037 15.8008,48.85168 11.8267,35.41924 26.6592,78.57293 5.40137,15.71478 7.84686,35.75668 14.08219,51.93153 5.875,15.20169 8.09192,22.30612 13.18852,38.29212 27.02315,-0.0929 51.91604,-0.0482 76.62114,-0.21271 20.98163,-0.13969 41.82781,-0.43021 63.72842,-1.08386 8.05147,-0.24777 16.04847,-0.56374 24.01933,-0.95469 23.3994,8.98313 43.64085,86.63489 43.89385,89.7638 -14.8701,8.03268 -52.28735,-18.72415 -68.26585,-17.96635 -24.5303,1.15862 -39.2246,1.07735 -62.9453,1.57677 -42.0186,0.89019 -55.5635,2.7783 -54.8789,4.80883 16.20337,46.38381 35.23809,101.61577 54.32739,153.53366 11.98583,32.59831 23.99319,63.89011 35.33471,90.8648 7.52737,12.87735 12.67019,23.20163 24.53246,31.30413 35.04081,19.93752 92.69557,18.3865 123.23199,0.66612 22.75944,-16.7396 32.74651,-39.63923 35.42657,-60.79336 3.35295,-26.40517 -0.98476,-41.38559 -14.86413,-56.49498 -3.71998,-4.04965 -10.84117,-7.54434 -15.43461,-11.94572 -14.97898,-15.07273 -30.78497,-18.79721 -34.35734,-40.12994 -1.2666,-12.40878 0.30274,-25.9177 5.2168,-36.58714 8.08262,-14.30313 17.61355,-20.97287 29.47806,-24.95291 9.77137,-3.27787 21.12558,-4.73137 34.55714,-7.12212 13.1465,-2.22501 27.4619,1.76759 43.3223,10.55259 15.20377,11.07534 17.48956,30.13513 16.35642,48.22848 -0.97232,16.59301 -2.42169,41.43865 -3.44432,60.37305 -1.13362,19.99888 1.69746,41.99507 0.80655,60.87105 -1.25982,19.3663 -4.05654,39.47408 -8.62925,57.71405 -3.05265,12.42445 -15.27935,26.17038 -22.44016,35.72402 -30.42998,37.64525 -83.68925,40.91984 -125.01365,44.93336 -24.8811,2.44659 -43.67538,2.17483 -61.61936,-0.38245 -22.82179,-2.00939 -44.34627,-8.81772 -61.03129,-19.84893 -22.5638,-14.91795 -37.80133,-36.84627 -49.72704,-58.38841 -55.33155,-101.49221 -87.5661,-277.7392 -119.195666,-272.77279 -8.30859,1.30469 -25.0322,2.6596 -42.3135,2.41492 -5.20215,0.44646 -8.74121,-1.29192 -10.1484,-2.44596 -5.25684,-2.5966 -7.3418,-9.66974 -7.84961,-14.13803 -4.80371,-15.10857 -13.623821,-63.7685 -5.928541,-64.3044 25.458,0.70851 15.2754,-0.15702 29.7402,0.98515 11.4492,0.90389 17.486531,0.17139 19.656431,-2.82328 0.933275,-12.82546 -4.600043,-25.18833 -6.767214,-39.06735 -8.417163,-53.90528 -34.715235,-112.34136 -36.138247,-148.77607 -1.02832,-13.49797 -0.01172,-27.77015 2.82129,-41.6982 1.9375,-9.52547 4.72461,-18.89025 8.28906,-27.73734 5.7334,-14.23292 13.4766,-27.12469 22.9268,-37.187 22.962446,-34.03689 77.793387,-51.09058 106.896497,-57.68138 31.3682,-6.87042 60.583,-17.15372 94.5645,-31.08812 37.9141,-15.999642 117.028,-35.20393 142.877,-26.82981 7.12012,2.306272 11.959,5.471684 13.5117,9.458819 6.73242,12.150371 12.2148,28.864861 12.0068,42.898831 -0.33496,10.02856 -28.7568,45.89349 -35.3213,58.08406 h 9.8e-4 z"
   id="path45"
   inkscape:connector-curvature="0"
   sodipodi:nodetypes="ccccccsccsccccccsccccscccscccccccccsccccccccscccccccccccc"
   style="stroke-width:0.96691501" />
   
</svg>