<?xml version="1.0" encoding="UTF-8" standalone="no"?>
<svg
   xmlns:dc="http://purl.org/dc/elements/1.1/"
   xmlns:cc="http://creativecommons.org/ns#"
   xmlns:rdf="http://www.w3.org/1999/02/22-rdf-syntax-ns#"
   xmlns:svg="http://www.w3.org/2000/svg"
   xmlns="http://www.w3.org/2000/svg"
   xmlns:sodipodi="http://sodipodi.sourceforge.net/DTD/sodipodi-0.dtd"
   xmlns:inkscape="http://www.inkscape.org/namespaces/inkscape"
   version="1.1"
   id="Layer_1"
   x="0px"
   y="0px"
   width="1066.6666"
   height="1092.2667"
   viewBox="0 0 1000 1024"
   enable-background="new 0 0 512 512"
   xml:space="preserve"
   inkscape:version="0.92.1 r15371"
   sodipodi:docname="g-g.svg"><title
   id="title3743">Sinai 357</title><metadata
   id="metadata72"><rdf:RDF><cc:Work
       rdf:about=""><dc:format>image/svg+xml</dc:format><dc:type
         rdf:resource="http://purl.org/dc/dcmitype/StillImage" /><dc:title>Sinai 357</dc:title><dc:date>2017</dc:date><dc:creator><cc:Agent><dc:title>Celeste Claire Horner</dc:title></cc:Agent></dc:creator><dc:publisher><cc:Agent><dc:title>beitdina.net</dc:title></cc:Agent></dc:publisher></cc:Work></rdf:RDF></metadata><defs
   id="defs70" /><sodipodi:namedview
   pagecolor="#ffffff"
   bordercolor="#666666"
   borderopacity="1"
   objecttolerance="10"
   gridtolerance="10"
   guidetolerance="10"
   inkscape:pageopacity="0"
   inkscape:pageshadow="2"
   inkscape:window-width="1152"
   inkscape:window-height="814"
   id="namedview68"
   showgrid="false"
   inkscape:zoom="0.090114682"
   inkscape:cx="-1606.5528"
   inkscape:cy="141.98991"
   inkscape:window-x="-8"
   inkscape:window-y="-8"
   inkscape:window-maximized="1"
   inkscape:current-layer="Layer_1" />
   
	<g
   id="Grid"
   transform="matrix(1.8844278,0,0,1.8889078,0.47454151,-0.26247425)">
		<rect
   x="0"
   stroke-miterlimit="10"
   width="512"
   height="512"
   id="rect4"
   y="0"
   style="fill:none;stroke:#a9ccdb;stroke-miterlimit:10" />
		<line
   stroke-miterlimit="10"
   x1="0"
   y1="32"
   x2="512"
   y2="32"
   id="line6"
   style="fill:none;stroke:#a9ccdb;stroke-miterlimit:10" />
		<line
   stroke-miterlimit="10"
   x1="0"
   y1="64"
   x2="512"
   y2="64"
   id="line8"
   style="fill:none;stroke:#a9ccdb;stroke-miterlimit:10" />
		<line
   stroke-miterlimit="10"
   x1="0"
   y1="96"
   x2="512"
   y2="96"
   id="line10"
   style="fill:none;stroke:#a9ccdb;stroke-miterlimit:10" />
		<line
   stroke-miterlimit="10"
   x1="0"
   y1="128"
   x2="512"
   y2="128"
   id="line12"
   style="fill:none;stroke:#a9ccdb;stroke-miterlimit:10" />
		<line
   stroke-miterlimit="10"
   x1="0"
   y1="160"
   x2="512"
   y2="160"
   id="line14"
   style="fill:none;stroke:#a9ccdb;stroke-miterlimit:10" />
		<line
   stroke-miterlimit="10"
   x1="0"
   y1="192"
   x2="512"
   y2="192"
   id="line16"
   style="fill:none;stroke:#a9ccdb;stroke-miterlimit:10" />
		<line
   stroke-miterlimit="10"
   x1="0"
   y1="224"
   x2="512"
   y2="224"
   id="line18"
   style="fill:none;stroke:#a9ccdb;stroke-miterlimit:10" />
		<line
   stroke-miterlimit="10"
   x1="0"
   y1="256"
   x2="512"
   y2="256"
   id="line20"
   style="fill:none;stroke:#a9ccdb;stroke-miterlimit:10" />
		<line
   stroke-miterlimit="10"
   x1="0"
   y1="288"
   x2="512"
   y2="288"
   id="line22"
   style="fill:none;stroke:#a9ccdb;stroke-miterlimit:10" />
		<line
   stroke-miterlimit="10"
   x1="0"
   y1="320"
   x2="512"
   y2="320"
   id="line24"
   style="fill:none;stroke:#a9ccdb;stroke-miterlimit:10" />
		<line
   stroke-miterlimit="10"
   x1="0"
   y1="352"
   x2="512"
   y2="352"
   id="line26"
   style="fill:none;stroke:#a9ccdb;stroke-miterlimit:10" />
		<line
   stroke-miterlimit="10"
   x1="0"
   y1="384"
   x2="512"
   y2="384"
   id="line28"
   style="fill:none;stroke:#a9ccdb;stroke-miterlimit:10" />
		<line
   stroke-miterlimit="10"
   x1="0"
   y1="416"
   x2="512"
   y2="416"
   id="line30"
   style="fill:none;stroke:#a9ccdb;stroke-miterlimit:10" />
		<line
   stroke-miterlimit="10"
   x1="0"
   y1="448"
   x2="512"
   y2="448"
   id="line32"
   style="fill:none;stroke:#ff0000;stroke-miterlimit:10" />
		<line
   stroke-miterlimit="10"
   x1="0"
   y1="480"
   x2="512"
   y2="480"
   id="line34"
   style="fill:none;stroke:#a9ccdb;stroke-miterlimit:10" />
		<line
   stroke-miterlimit="10"
   x1="32"
   y1="0"
   x2="32"
   y2="512"
   id="line36"
   style="fill:none;stroke:#a9ccdb;stroke-miterlimit:10" />
		<line
   stroke-miterlimit="10"
   x1="64"
   y1="0"
   x2="64"
   y2="512"
   id="line38"
   style="fill:none;stroke:#a9ccdb;stroke-miterlimit:10" />
		<line
   stroke-miterlimit="10"
   x1="96"
   y1="0"
   x2="96"
   y2="512"
   id="line40"
   style="fill:none;stroke:#a9ccdb;stroke-miterlimit:10" />
		<line
   stroke-miterlimit="10"
   x1="128"
   y1="0"
   x2="128"
   y2="512"
   id="line42"
   style="fill:none;stroke:#a9ccdb;stroke-miterlimit:10" />
		<line
   stroke-miterlimit="10"
   x1="160"
   y1="0"
   x2="160"
   y2="512"
   id="line44"
   style="fill:none;stroke:#a9ccdb;stroke-miterlimit:10" />
		<line
   stroke-miterlimit="10"
   x1="192"
   y1="0"
   x2="192"
   y2="512"
   id="line46"
   style="fill:none;stroke:#a9ccdb;stroke-miterlimit:10" />
		<line
   stroke-miterlimit="10"
   x1="224"
   y1="0"
   x2="224"
   y2="512"
   id="line48"
   style="fill:none;stroke:#a9ccdb;stroke-miterlimit:10" />
		<line
   stroke-miterlimit="10"
   x1="256"
   y1="0"
   x2="256"
   y2="512"
   id="line50"
   style="fill:none;stroke:#a9ccdb;stroke-miterlimit:10" />
		<line
   stroke-miterlimit="10"
   x1="288"
   y1="0"
   x2="288"
   y2="512"
   id="line52"
   style="fill:none;stroke:#a9ccdb;stroke-miterlimit:10" />
		<line
   stroke-miterlimit="10"
   x1="320"
   y1="0"
   x2="320"
   y2="512"
   id="line54"
   style="fill:none;stroke:#a9ccdb;stroke-miterlimit:10" />
		<line
   stroke-miterlimit="10"
   x1="352"
   y1="0"
   x2="352"
   y2="512"
   id="line56"
   style="fill:none;stroke:#a9ccdb;stroke-miterlimit:10" />
		<line
   stroke-miterlimit="10"
   x1="384"
   y1="0"
   x2="384"
   y2="512"
   id="line58"
   style="fill:none;stroke:#a9ccdb;stroke-miterlimit:10" />
		<line
   stroke-miterlimit="10"
   x1="416"
   y1="0"
   x2="416"
   y2="512"
   id="line60"
   style="fill:none;stroke:#a9ccdb;stroke-miterlimit:10" />
		<line
   stroke-miterlimit="10"
   x1="448"
   y1="0"
   x2="448"
   y2="512"
   id="line62"
   style="fill:none;stroke:#a9ccdb;stroke-miterlimit:10" />
		<line
   stroke-miterlimit="10"
   x1="480"
   y1="0"
   x2="480"
   y2="512"
   id="line64"
   style="fill:none;stroke:#a9ccdb;stroke-miterlimit:10" />
	</g>
	
    
 	
	
   
   
    <path
   glyph-name="g"
   unicode="g"
   horiz-adv-x="1159"
   d="m 70.687819,974.65499 c -13.1348,-2.10352 -19.1855,-4.48242 -36.4531,-14.3281 -20.3643,-11.6113 -27.8769999,-47.3154 -32.3495999,-55.3828 -4.59961,-8.29688 -5.07715,-17.7959 -1.69726999,-33.7988 4.02538999,-19.0664 10.22359989,-31.5527 29.48829989,-59.4014 15.0381,-19.9893 31.5391,-41.5361 47.6572,-62.3906 31.040001,-40.1621 60.661101,-77.7588 75.686501,-96.7354 26.0957,-33.3682 55.4229,-69.8105 78.4844,-96.1924 23.9707,-26.1807 52.7637,-57.5869 55.9961,-84.2617 2.50195,-65.4082 -11.8564,-126.318 -15.8184,-162.338 -4.16113,-30.6709 -4.65039,-49.7939 -5.91113,-110.459 -2.23145,-107.353004 2.64355,-160.446004 12.0381,-205.6220043 1.61816,-4.2890597 0.93945,-6.9794897 3.83398,-14.0409997 3.95898,-9.65723 9.87207,-21.6924 19.8252,-35.5137 19.2949,-26.793 31.9346,-35.8672 55.9736,-40.1816 39.0195,-7.003906 77.2607,4.83105 102.886,31.8418 10.2188,10.7715 23.4189,32.3975 28.9102,47.3643 l 4.28613,11.6835997 -0.10547,42.8408003 c -0.11328,45.5742 -3.10938,86.733404 -10.5352,144.751004 -2.22266,17.3652 -4.35449,44.7402 -5.25781,67.5078 -0.83496,21.0635 -2.51758,46.4756 -3.73828,56.4717 -3.9834,32.6152 -8.50586,94.8105 -8.50781,116.994 0,14.8467 3.43945,32.0049 8.29688,41.377 0,0 11.2412,15.1191 30.9805,31.4062 8.36816,5.87402 66.5615,54.167 129.32,107.317 62.7578,53.1514 117.071,98.9033 120.696,101.671 19.1182,14.6006 36.8184,39.21 40.7031,56.5908 7.3418,32.8525 -4.68555,58.6172 -32.5742,69.7725 -7.66211,3.06543 -10.4316,3.44922 -24.6084,3.41211 -27.3896,-0.0703 -26.1016,0.65625 -81.3994,-45.916 -60.6924,-47.2764 -118.977,-99.0645 -179.022,-147.567 -16.1953,-12.917 -29.9268,-23.6426 -30.5156,-23.835 -0.58789,-0.19239 -4.39453,6.2334 -8.45703,14.2803 -30.082,59.5723 -53.9492,78.7822 -98.332,129.474 -32.7539,37.4102 -103.343,109.97 -125.422,128.924 -31.4482,26.998 -67.998,79.2607 -92.6289,84.3105 -10.3262,2.11621 -38.4404,2.10254 -51.7285,-0.0254 z m 181.472001,-271.31 107.899,-126.166 c 1.28906,-1.19727 2.22266,-3.4209 2.56348,-5.66406 0.30469,-2.00488 0.13574,-4.02441 -0.67676,-5.33887 -3.58203,-8.68848 -7.125,-11.792 -11.4795,-12.0928 -3.2627,-0.22559 -6.98145,1.12402 -11.5127,2.87598 -2.8457,1.11328 -5.62988,2.44922 -8.23438,4.0293 -2.54785,1.5459 -4.92383,3.3252 -7.02148,5.35742 -1.30664,1.29883 -34.2822,24.2217 -108.224,122.399 -49.9346,68.9551 -108.04,141.588 -149.020999,209.854 0,3.37109 10.9316,11.9121 15.4014,12.0322 49.304699,-46.9268 118.574999,-133.932 170.304999,-207.287 z m 143.869,-292.351 c 2.05664,-42.1133 3.71094,-152.217 3.14648,-176.489 L 393.92139,8.2179857 c -1.71973,-1.42871 -3.41309,-3.1123 -5.10547,-4.6748 -1.6416,-1.51562 -3.28223,-2.91796995 -4.94434,-3.86327995 -3.78809,-2.11816005 -7.56934,-2.71484005 -10.9414,-2.63281005 -1.99512,-0.25293 -6.43945,0.924805 -10.6455,2.69043005 -2.58691,1.36034995 -4.88965,2.79687995 -7.22266,4.12011995 -2.16699,1.22852 -4.36035,2.36035 -6.83301,3.24121 1.30566,74.6709003 -1.10352,149.5640043 2.28418,224.0750043 1.25684,24.8926 3.81152,153.166 3.99121,183.096 -0.1543,5.33301 1.30859,8.51074 2.95801,12.2559 0.97363,3.23047 2.71191,5.2959 4.85547,6.58105 3.61816,2.16895 8.3916,2.10938 12.5879,1.66113 3.56543,-1.06445 8.5127,0.59765 12.3076,-0.57911 3.32812,-1.03125 5.63379,-4.66797 7.2041,-8.54492 1.61523,-4.15527 1.35059,-9.40723 1.61133,-14.6494 z"
   id="path38"
   inkscape:connector-curvature="0" />

</svg>