<?xml version="1.0" encoding="UTF-8" standalone="no"?>
<svg
   xmlns:dc="http://purl.org/dc/elements/1.1/"
   xmlns:cc="http://creativecommons.org/ns#"
   xmlns:rdf="http://www.w3.org/1999/02/22-rdf-syntax-ns#"
   xmlns:svg="http://www.w3.org/2000/svg"
   xmlns="http://www.w3.org/2000/svg"
   xmlns:sodipodi="http://sodipodi.sourceforge.net/DTD/sodipodi-0.dtd"
   xmlns:inkscape="http://www.inkscape.org/namespaces/inkscape"
   version="1.1"
   id="Layer_1"
   x="0px"
   y="0px"
   width="1066.6666"
   height="1092.2667"
   viewBox="0 0 1000 1024"
   enable-background="new 0 0 512 512"
   xml:space="preserve"
   inkscape:version="0.92.1 r15371"
   sodipodi:docname="g-g.svg"><title
   id="title3743">Sinai 357</title><metadata
   id="metadata72"><rdf:RDF><cc:Work
       rdf:about=""><dc:format>image/svg+xml</dc:format><dc:type
         rdf:resource="http://purl.org/dc/dcmitype/StillImage" /><dc:title>Sinai 357</dc:title><dc:date>2017</dc:date><dc:creator><cc:Agent><dc:title>Celeste Claire Horner</dc:title></cc:Agent></dc:creator><dc:publisher><cc:Agent><dc:title>beitdina.net</dc:title></cc:Agent></dc:publisher></cc:Work></rdf:RDF></metadata><defs
   id="defs70" /><sodipodi:namedview
   pagecolor="#ffffff"
   bordercolor="#666666"
   borderopacity="1"
   objecttolerance="10"
   gridtolerance="10"
   guidetolerance="10"
   inkscape:pageopacity="0"
   inkscape:pageshadow="2"
   inkscape:window-width="1152"
   inkscape:window-height="814"
   id="namedview68"
   showgrid="false"
   inkscape:zoom="0.36045873"
   inkscape:cx="400.81869"
   inkscape:cy="1194.5474"
   inkscape:window-x="-8"
   inkscape:window-y="-8"
   inkscape:window-maximized="1"
   inkscape:current-layer="Layer_1" />
   
	<g
   id="Grid"
   transform="matrix(1.8844278,0,0,1.8889078,0.47454151,-0.26247425)">
		<rect
   x="0"
   stroke-miterlimit="10"
   width="512"
   height="512"
   id="rect4"
   y="0"
   style="fill:none;stroke:#a9ccdb;stroke-miterlimit:10" />
		<line
   stroke-miterlimit="10"
   x1="0"
   y1="32"
   x2="512"
   y2="32"
   id="line6"
   style="fill:none;stroke:#a9ccdb;stroke-miterlimit:10" />
		<line
   stroke-miterlimit="10"
   x1="0"
   y1="64"
   x2="512"
   y2="64"
   id="line8"
   style="fill:none;stroke:#a9ccdb;stroke-miterlimit:10" />
		<line
   stroke-miterlimit="10"
   x1="0"
   y1="96"
   x2="512"
   y2="96"
   id="line10"
   style="fill:none;stroke:#a9ccdb;stroke-miterlimit:10" />
		<line
   stroke-miterlimit="10"
   x1="0"
   y1="128"
   x2="512"
   y2="128"
   id="line12"
   style="fill:none;stroke:#a9ccdb;stroke-miterlimit:10" />
		<line
   stroke-miterlimit="10"
   x1="0"
   y1="160"
   x2="512"
   y2="160"
   id="line14"
   style="fill:none;stroke:#a9ccdb;stroke-miterlimit:10" />
		<line
   stroke-miterlimit="10"
   x1="0"
   y1="192"
   x2="512"
   y2="192"
   id="line16"
   style="fill:none;stroke:#a9ccdb;stroke-miterlimit:10" />
		<line
   stroke-miterlimit="10"
   x1="0"
   y1="224"
   x2="512"
   y2="224"
   id="line18"
   style="fill:none;stroke:#a9ccdb;stroke-miterlimit:10" />
		<line
   stroke-miterlimit="10"
   x1="0"
   y1="256"
   x2="512"
   y2="256"
   id="line20"
   style="fill:none;stroke:#a9ccdb;stroke-miterlimit:10" />
		<line
   stroke-miterlimit="10"
   x1="0"
   y1="288"
   x2="512"
   y2="288"
   id="line22"
   style="fill:none;stroke:#a9ccdb;stroke-miterlimit:10" />
		<line
   stroke-miterlimit="10"
   x1="0"
   y1="320"
   x2="512"
   y2="320"
   id="line24"
   style="fill:none;stroke:#a9ccdb;stroke-miterlimit:10" />
		<line
   stroke-miterlimit="10"
   x1="0"
   y1="352"
   x2="512"
   y2="352"
   id="line26"
   style="fill:none;stroke:#a9ccdb;stroke-miterlimit:10" />
		<line
   stroke-miterlimit="10"
   x1="0"
   y1="384"
   x2="512"
   y2="384"
   id="line28"
   style="fill:none;stroke:#a9ccdb;stroke-miterlimit:10" />
		<line
   stroke-miterlimit="10"
   x1="0"
   y1="416"
   x2="512"
   y2="416"
   id="line30"
   style="fill:none;stroke:#a9ccdb;stroke-miterlimit:10" />
		<line
   stroke-miterlimit="10"
   x1="0"
   y1="448"
   x2="512"
   y2="448"
   id="line32"
   style="fill:none;stroke:#ff0000;stroke-miterlimit:10" />
		<line
   stroke-miterlimit="10"
   x1="0"
   y1="480"
   x2="512"
   y2="480"
   id="line34"
   style="fill:none;stroke:#a9ccdb;stroke-miterlimit:10" />
		<line
   stroke-miterlimit="10"
   x1="32"
   y1="0"
   x2="32"
   y2="512"
   id="line36"
   style="fill:none;stroke:#a9ccdb;stroke-miterlimit:10" />
		<line
   stroke-miterlimit="10"
   x1="64"
   y1="0"
   x2="64"
   y2="512"
   id="line38"
   style="fill:none;stroke:#a9ccdb;stroke-miterlimit:10" />
		<line
   stroke-miterlimit="10"
   x1="96"
   y1="0"
   x2="96"
   y2="512"
   id="line40"
   style="fill:none;stroke:#a9ccdb;stroke-miterlimit:10" />
		<line
   stroke-miterlimit="10"
   x1="128"
   y1="0"
   x2="128"
   y2="512"
   id="line42"
   style="fill:none;stroke:#a9ccdb;stroke-miterlimit:10" />
		<line
   stroke-miterlimit="10"
   x1="160"
   y1="0"
   x2="160"
   y2="512"
   id="line44"
   style="fill:none;stroke:#a9ccdb;stroke-miterlimit:10" />
		<line
   stroke-miterlimit="10"
   x1="192"
   y1="0"
   x2="192"
   y2="512"
   id="line46"
   style="fill:none;stroke:#a9ccdb;stroke-miterlimit:10" />
		<line
   stroke-miterlimit="10"
   x1="224"
   y1="0"
   x2="224"
   y2="512"
   id="line48"
   style="fill:none;stroke:#a9ccdb;stroke-miterlimit:10" />
		<line
   stroke-miterlimit="10"
   x1="256"
   y1="0"
   x2="256"
   y2="512"
   id="line50"
   style="fill:none;stroke:#a9ccdb;stroke-miterlimit:10" />
		<line
   stroke-miterlimit="10"
   x1="288"
   y1="0"
   x2="288"
   y2="512"
   id="line52"
   style="fill:none;stroke:#a9ccdb;stroke-miterlimit:10" />
		<line
   stroke-miterlimit="10"
   x1="320"
   y1="0"
   x2="320"
   y2="512"
   id="line54"
   style="fill:none;stroke:#a9ccdb;stroke-miterlimit:10" />
		<line
   stroke-miterlimit="10"
   x1="352"
   y1="0"
   x2="352"
   y2="512"
   id="line56"
   style="fill:none;stroke:#a9ccdb;stroke-miterlimit:10" />
		<line
   stroke-miterlimit="10"
   x1="384"
   y1="0"
   x2="384"
   y2="512"
   id="line58"
   style="fill:none;stroke:#a9ccdb;stroke-miterlimit:10" />
		<line
   stroke-miterlimit="10"
   x1="416"
   y1="0"
   x2="416"
   y2="512"
   id="line60"
   style="fill:none;stroke:#a9ccdb;stroke-miterlimit:10" />
		<line
   stroke-miterlimit="10"
   x1="448"
   y1="0"
   x2="448"
   y2="512"
   id="line62"
   style="fill:none;stroke:#a9ccdb;stroke-miterlimit:10" />
		<line
   stroke-miterlimit="10"
   x1="480"
   y1="0"
   x2="480"
   y2="512"
   id="line64"
   style="fill:none;stroke:#a9ccdb;stroke-miterlimit:10" />
	</g>
	
    
 	
    
 	
   
   
    <path
   glyph-name="g"
   unicode="g"
   horiz-adv-x="519"
   d="m 60.0459,-93.5205 c -10.2588,1.31152 -14.9844,2.79395 -28.4717,8.93066 -15.9053,7.2373 -21.7725,29.4912 -25.2666,34.5205 -3.5918,5.1709 -3.96484,11.0918 -1.3252,21.0664 3.14355,11.8838 7.98535,19.667 23.0312,37.0244 11.7461,12.46 24.6338,25.8896 37.2227,38.8877 24.2432,25.0332 47.3789,48.4678 59.1143,60.2949 15.8203,13.4111 35.1455,28.7305 49.3652,43.4785 9.34863,9.69434 16.4902,19.1416 18.9805,27.6377 0.33008,24.4893 -9.82129,75.6172 -14.6787,108.734 -3.25,19.1172 -3.63184,31.0371 -4.61621,68.8496 -1.74316,66.9121 2.06445,100.005 9.40137,128.163 3.18136,11.4051 11.26387,22.80854 18.47952,30.88765 31.79862,35.31538 75.59598,29.17026 108.47008,2.59735 41.18092,-43.45248 40.81532,-103.21193 33.22236,-151.12958 -4.61418,-26.51171 -3.09682,-50.49204 -7.02637,-77.2753 -3.11133,-20.3291 -6.64355,-59.0957 -6.64453,-72.9229 0,-9.25391 2.68652,-19.9482 6.47949,-25.79 0,0 8.78027,-9.42383 24.1973,-19.5752 6.53613,-3.66113 51.9873,-33.7627 101.005,-66.8906 49.0156,-33.1289 91.4365,-61.6465 94.2686,-63.3711 14.9316,-9.10059 28.7559,-24.4395 31.79,-35.2734 5.73438,-20.4766 -3.65918,-36.5352 -25.4414,-43.4883 -5.98438,-1.91113 -8.14746,-2.15039 -19.2197,-2.12695 -21.3926,0.04394 -20.3867,-0.40918 -63.5771,28.6191 -47.4033,29.4678 -92.9258,61.7471 -139.823,91.9785 -12.6494,8.05078 -23.374,14.7363 -23.834,14.8564 -0.45899,0.119141 -3.43262,-3.88574 -6.60547,-8.90137 -23.4951,-37.1309 -42.1367,-49.1045 -76.8008,-80.7012 -25.582,-23.3174 -41.7021,-34.7324 -58.9473,-46.5469 -24.5625,-16.8271 -53.1094,-49.4023 -72.3467,-52.5498 -8.065431,-1.31934 -30.023401,-1.31055 -40.402301,0.01563 v 0 z M 201.783,75.5869 247.0437,120.414 c 1.60254,2.00977 2.05566,4.01855 1.72559,5.89551 -0.47168,2.68066 -2.54102,5.0918 -5.1377,6.85059 -2.63965,1.73535 -5.5918,1.52832 -9.94141,0.58105 -5.81152,-1.2744 -11.416,-3.18652 -16.1309,-5.9082 -18.0957,-10.5527 -36.5635,-33.150395 -44.4307,-43.146495 -39.001,-42.9795 -84.3828,-88.251 -116.391,-130.802 0,-2.10059 8.53809,-7.4248 12.0283,-7.49902 38.5098,29.249 92.6123,83.4795 133.016,129.201 h 9.8e-4 z m 73.355,148.4101 c 1.60645,26.249 2.89844,94.877 2.45801,110.005 l -4.10352,141.045 c -1.34375,0.89062 -2.66602,1.93945 -3.98828,2.91309 -1.28223,0.94531 -2.56348,1.81934 -3.86133,2.4082 -2.95898,1.32031 -5.91211,1.69238 -8.5459,1.6416 -1.55859,0.15723 -5.0293,-0.57715 -8.31445,-1.67773 -2.02051,-0.84766 -3.81934,-1.74316 -5.6416,-2.56738 -1.69238,-0.76563 -3.40527,-1.47168 -5.33691,-2.02051 1.02051,-46.542 -0.86133,-93.2227 1.78418,-139.666 0.98242,-15.5146 2.97754,-95.4678 3.11719,-114.123 -0.12012,-3.32422 1.02246,-5.30469 2.31055,-7.63867 0.76074,-2.01367 2.11816,-3.30078 3.79297,-4.10254 2.8252,-1.35156 6.55371,-1.31445 9.83105,-1.03516 2.78516,0.66406 6.64844,-0.37207 9.61328,0.36133 2.59863,0.64258 4.39941,2.90918 5.62598,5.32617 1.26172,2.58984 1.05566,5.86328 1.25879,9.13086 v 0 z"
   id="path38"
   inkscape:connector-curvature="0"
   sodipodi:nodetypes="ccccccccccccccccccccccccccccccccccccccccccccccccccccccccccccccccc" />
 
</svg>