<?xml version="1.0" encoding="UTF-8" standalone="no"?>
<svg
   xmlns:dc="http://purl.org/dc/elements/1.1/"
   xmlns:cc="http://creativecommons.org/ns#"
   xmlns:rdf="http://www.w3.org/1999/02/22-rdf-syntax-ns#"
   xmlns:svg="http://www.w3.org/2000/svg"
   xmlns="http://www.w3.org/2000/svg"
   xmlns:sodipodi="http://sodipodi.sourceforge.net/DTD/sodipodi-0.dtd"
   xmlns:inkscape="http://www.inkscape.org/namespaces/inkscape"
   version="1.1"
   id="Layer_1"
   x="0px"
   y="0px"
   width="1066.6666"
   height="1092.2667"
   viewBox="0 0 1000 1024"
   enable-background="new 0 0 512 512"
   xml:space="preserve"
   inkscape:version="0.92.1 r15371"
   sodipodi:docname="h-h.svg"><title
   id="title3743">Sinai 357</title><metadata
   id="metadata72"><rdf:RDF><cc:Work
       rdf:about=""><dc:format>image/svg+xml</dc:format><dc:type
         rdf:resource="http://purl.org/dc/dcmitype/StillImage" /><dc:title>Sinai 357</dc:title><dc:date>2017</dc:date><dc:creator><cc:Agent><dc:title>Celeste Claire Horner</dc:title></cc:Agent></dc:creator><dc:publisher><cc:Agent><dc:title>beitdina.net</dc:title></cc:Agent></dc:publisher></cc:Work></rdf:RDF></metadata><defs
   id="defs70" /><sodipodi:namedview
   pagecolor="#ffffff"
   bordercolor="#666666"
   borderopacity="1"
   objecttolerance="10"
   gridtolerance="10"
   guidetolerance="10"
   inkscape:pageopacity="0"
   inkscape:pageshadow="2"
   inkscape:window-width="1152"
   inkscape:window-height="814"
   id="namedview68"
   showgrid="false"
   inkscape:zoom="0.50976561"
   inkscape:cx="-166.89839"
   inkscape:cy="581.18436"
   inkscape:window-x="-8"
   inkscape:window-y="-8"
   inkscape:window-maximized="1"
   inkscape:current-layer="Layer_1" />
   
	<g
   id="Grid"
   transform="matrix(1.9502951,0,0,-1.9942504,5.1344581,1028.3982)">
		<rect
   x="0"
   stroke-miterlimit="10"
   width="512"
   height="512"
   id="rect4"
   y="0"
   style="fill:none;stroke:#a9ccdb;stroke-miterlimit:10" />
		<line
   stroke-miterlimit="10"
   x1="0"
   y1="32"
   x2="512"
   y2="32"
   id="line6"
   style="fill:none;stroke:#a9ccdb;stroke-miterlimit:10" />
		<line
   stroke-miterlimit="10"
   x1="0"
   y1="64"
   x2="512"
   y2="64"
   id="line8"
   style="fill:none;stroke:#a9ccdb;stroke-miterlimit:10" />
		<line
   stroke-miterlimit="10"
   x1="0"
   y1="96"
   x2="512"
   y2="96"
   id="line10"
   style="fill:none;stroke:#a9ccdb;stroke-miterlimit:10" />
		<line
   stroke-miterlimit="10"
   x1="0"
   y1="128"
   x2="512"
   y2="128"
   id="line12"
   style="fill:none;stroke:#a9ccdb;stroke-miterlimit:10" />
		<line
   stroke-miterlimit="10"
   x1="0"
   y1="160"
   x2="512"
   y2="160"
   id="line14"
   style="fill:none;stroke:#a9ccdb;stroke-miterlimit:10" />
		<line
   stroke-miterlimit="10"
   x1="0"
   y1="192"
   x2="512"
   y2="192"
   id="line16"
   style="fill:none;stroke:#a9ccdb;stroke-miterlimit:10" />
		<line
   stroke-miterlimit="10"
   x1="0"
   y1="224"
   x2="512"
   y2="224"
   id="line18"
   style="fill:none;stroke:#a9ccdb;stroke-miterlimit:10" />
		<line
   stroke-miterlimit="10"
   x1="0"
   y1="256"
   x2="512"
   y2="256"
   id="line20"
   style="fill:none;stroke:#a9ccdb;stroke-miterlimit:10" />
		<line
   stroke-miterlimit="10"
   x1="0"
   y1="288"
   x2="512"
   y2="288"
   id="line22"
   style="fill:none;stroke:#a9ccdb;stroke-miterlimit:10" />
		<line
   stroke-miterlimit="10"
   x1="0"
   y1="320"
   x2="512"
   y2="320"
   id="line24"
   style="fill:none;stroke:#a9ccdb;stroke-miterlimit:10" />
		<line
   stroke-miterlimit="10"
   x1="0"
   y1="352"
   x2="512"
   y2="352"
   id="line26"
   style="fill:none;stroke:#a9ccdb;stroke-miterlimit:10" />
		<line
   stroke-miterlimit="10"
   x1="0"
   y1="384"
   x2="512"
   y2="384"
   id="line28"
   style="fill:none;stroke:#a9ccdb;stroke-miterlimit:10" />
		<line
   stroke-miterlimit="10"
   x1="0"
   y1="416"
   x2="512"
   y2="416"
   id="line30"
   style="fill:none;stroke:#a9ccdb;stroke-miterlimit:10" />
		<line
   stroke-miterlimit="10"
   x1="0"
   y1="448"
   x2="512"
   y2="448"
   id="line32"
   style="fill:none;stroke:#ff0000;stroke-miterlimit:10" />
		<line
   stroke-miterlimit="10"
   x1="0"
   y1="480"
   x2="512"
   y2="480"
   id="line34"
   style="fill:none;stroke:#a9ccdb;stroke-miterlimit:10" />
		<line
   stroke-miterlimit="10"
   x1="32"
   y1="0"
   x2="32"
   y2="512"
   id="line36"
   style="fill:none;stroke:#a9ccdb;stroke-miterlimit:10" />
		<line
   stroke-miterlimit="10"
   x1="64"
   y1="0"
   x2="64"
   y2="512"
   id="line38"
   style="fill:none;stroke:#a9ccdb;stroke-miterlimit:10" />
		<line
   stroke-miterlimit="10"
   x1="96"
   y1="0"
   x2="96"
   y2="512"
   id="line40"
   style="fill:none;stroke:#a9ccdb;stroke-miterlimit:10" />
		<line
   stroke-miterlimit="10"
   x1="128"
   y1="0"
   x2="128"
   y2="512"
   id="line42"
   style="fill:none;stroke:#a9ccdb;stroke-miterlimit:10" />
		<line
   stroke-miterlimit="10"
   x1="160"
   y1="0"
   x2="160"
   y2="512"
   id="line44"
   style="fill:none;stroke:#a9ccdb;stroke-miterlimit:10" />
		<line
   stroke-miterlimit="10"
   x1="192"
   y1="0"
   x2="192"
   y2="512"
   id="line46"
   style="fill:none;stroke:#a9ccdb;stroke-miterlimit:10" />
		<line
   stroke-miterlimit="10"
   x1="224"
   y1="0"
   x2="224"
   y2="512"
   id="line48"
   style="fill:none;stroke:#a9ccdb;stroke-miterlimit:10" />
		<line
   stroke-miterlimit="10"
   x1="256"
   y1="0"
   x2="256"
   y2="512"
   id="line50"
   style="fill:none;stroke:#a9ccdb;stroke-miterlimit:10" />
		<line
   stroke-miterlimit="10"
   x1="288"
   y1="0"
   x2="288"
   y2="512"
   id="line52"
   style="fill:none;stroke:#a9ccdb;stroke-miterlimit:10" />
		<line
   stroke-miterlimit="10"
   x1="320"
   y1="0"
   x2="320"
   y2="512"
   id="line54"
   style="fill:none;stroke:#a9ccdb;stroke-miterlimit:10" />
		<line
   stroke-miterlimit="10"
   x1="352"
   y1="0"
   x2="352"
   y2="512"
   id="line56"
   style="fill:none;stroke:#a9ccdb;stroke-miterlimit:10" />
		<line
   stroke-miterlimit="10"
   x1="384"
   y1="0"
   x2="384"
   y2="512"
   id="line58"
   style="fill:none;stroke:#a9ccdb;stroke-miterlimit:10" />
		<line
   stroke-miterlimit="10"
   x1="416"
   y1="0"
   x2="416"
   y2="512"
   id="line60"
   style="fill:none;stroke:#a9ccdb;stroke-miterlimit:10" />
		<line
   stroke-miterlimit="10"
   x1="448"
   y1="0"
   x2="448"
   y2="512"
   id="line62"
   style="fill:none;stroke:#a9ccdb;stroke-miterlimit:10" />
		<line
   stroke-miterlimit="10"
   x1="480"
   y1="0"
   x2="480"
   y2="512"
   id="line64"
   style="fill:none;stroke:#a9ccdb;stroke-miterlimit:10" />
	</g>
	

    
         


<g
   id="g206"
   transform="matrix(0.93749999,0,0,0.93749999,2191.2841,695.76495)"><g
   id="g2991"
   transform="matrix(4.4637923,0,0,4.9975799,-3306.2811,-1632.7003)"><g
     id="g4784" /><flowRoot
     xml:space="preserve"
     id="flowRoot4904"
     style="font-style:normal;font-variant:normal;font-weight:normal;font-stretch:normal;line-height:0.01%;font-family:Arial;-inkscape-font-specification:Arial;text-align:start;letter-spacing:0px;word-spacing:0px;writing-mode:lr-tb;text-anchor:start;fill:#000000;fill-opacity:1;stroke:none"><flowRegion
       id="flowRegion4906"><rect
         id="rect4908"
         width="594.73566"
         height="32.045979"
         x="31.103449"
         y="186.87357"
         style="font-size:28px" /></flowRegion><flowPara
       style="font-size:28px;line-height:1"
       id="flowPara4910"> </flowPara></flowRoot></g>
</g>
    
    
 		 
		 
     
   
<path
   glyph-name="h"
   unicode="h"
   horiz-adv-x="475"
   sodipodi:nodetypes="cccsccccscccscccsccssccsscssccccsccccccccccccscccccsccccccccccscccc"
   inkscape:connector-curvature="0"
   id="path3760"
   d="m 523.65045,-32.74284 c -16.41987,0.746212 -41.10215,3.534185 -46.90912,17.050187 -10.96165,11.5348345 -13.10258,20.5880736 -19.01642,34.479341 -0.81087,8.314106 -2.96841,16.433574 -5.35968,24.354876 -3.24228,10.740287 -6.9141,21.116194 -8.24151,31.119016 -4.31786,23.017181 -7.36552,43.93531 -11.1977,63.94229 -0.54712,2.85388 -1.12215,5.76996 -1.73445,8.77657 -1.7583,9.45113 -4.01781,33.37158 -9.94544,51.0132 -5.05071,14.58876 -16.17635,18.40792 -22.55664,17.53004 -10.14219,-1.39542 -15.25015,-16.31493 -17.57573,-31.24535 -3.95034,-27.09357 4.7483,-60.6499 7.96321,-81.84839 0.88544,-4.986685 2.15252,-9.960002 3.55938,-14.790098 3.27476,-10.395687 6.79822,-20.67297 10.2765,-30.835596 4.73176,-13.825092 9.3798,-27.4379 13.20446,-40.848 1.97364,-10.4337777 6.27917,-26.811835 4.00222,-31.778019 -9.67301,-14.330061 -18.23343,-17.506589 -27.73118,-15.551881 -4.7892,1.5825 -9.61533,3.336679 -14.29451,5.342988 -7.21028,3.091693 -14.07167,6.78218 -19.91142,11.365743 -13.76509,10.9316074 -22.67462,26.432931 -29.34541,42.325259 -3.06162,14.303625 -5.53095,27.003997 -7.45267,39.223646 -0.78809,5.010966 -1.48404,9.94111 -2.09099,14.867821 -1.76774,14.349275 -2.78045,28.669627 -3.11418,44.873697 -0.19559,10.04999 -3.9248,16.33752 -5.78425,24.93827 -2.20565,9.31825 -4.7552,19.53909 -8.13226,29.5985 -3.09658,9.22403 -6.88896,18.31233 -11.74983,26.44457 -2.98268,4.98993 -6.36763,9.61991 -10.24104,13.70042 -22.55576,11.6085 -33.97695,4.43702 -39.13763,-9.60339 -3.27581,-8.91173 -4.02956,-20.59076 -3.50766,-31.99128 0.58655,-12.81342 2.78434,-25.27507 4.82377,-33.06051 4.23838,-13.4728 14.14503,-25.72243 19.84765,-38.87879 6.26068,-14.378918 11.28399,-28.935924 16.81267,-42.597995 5.2522,-13.13589 10.06482,-29.905812 8.08562,-40.37757 -4.28144,-12.202273 -11.52445,-20.8256334 -20.81179,-24.8374944 -7.60953,-3.2871205 -16.59154,-3.4785635 -26.44131,-0.0060555 -14.39896,5.4024243 -24.96875,22.5394279 -33.55104,33.0636019 -19.80454,24.713672 -28.63855,47.796562 -31.29015,75.106633 -1.20966,25.74452 -1.68134,55.43801 5.88494,77.07906 3.77766,10.00613 9.19807,9.30349 9.31547,16.71999 -15.7337,46.93815 -48.69297,30.0644 -71.09743,54.72844 -2.67774,4.27291 -4.0792,7.3565 -5.10869,10.06933 -24.082034,38.90671 -58.999244,68.22489 -75.404594,106.88395 -8.94104,21.43087 -13.31225,46.76474 -8.80426,63.10452 6.0646,10.76318 22.48022,9.93871 34.28465,10.29941 9.9112,0.90789 20.13337,0.76257 29.16146,-0.20283 4.34424,-0.55328 8.461034,-2.04811 12.240454,-4.31125 2.158,-1.6391 8.37472,-5.02988 14.2085,-7.28371 6.60741,-2.55275 12.72417,-3.64722 11.8962,0.9138 -6.70847,11.48956 -8.99786,31.04424 -12.00795,42.86016 -9.6014,37.71564 -20.408784,83.23313 3.08096,98.40984 13.21332,3.09402 34.72365,-4.73393 50.14611,-16.74565 9.08624,-8.93847 18.82468,-23.99668 25.73742,-39.48915 2.26603,-6.57329 5.90886,-15.33697 8.38045,-23.89269 2.30422,-7.975 3.59015,-15.76924 1.79579,-21.44091 -3.90197,-11.93675 -14.17537,-23.5871 -9.2574,-24.66242 10.36561,-6.02605 9.61498,-12.76355 22.93709,-20.76041 19.9928,-12.72878 41.6315,-18.66786 61.21674,-28.67551 8.70475,-4.44833 17.06654,-8.64847 24.53924,-10.12725 46.60388,-6.22947 92.8145,-14.59262 135.47604,-24.17632 35.0803,-7.94808 69.18518,-18.39497 95.34998,-37.4445 14.38387,-22.6825 21.64995,-46.65687 21.18951,-71.0615 -1.78219,-23.20693 -10.94667,-59.42672 -28.95939,-71.11824 -6.37671,-3.82941 -14.65883,0.0452 -25.94311,-1.60848 -2.76906,-3.33445 -4.42562,-7.97561 -5.26073,-13.43331 -3.55583,-23.25029 7.80309,-61.32041 11.61525,-76.321754 8.23427,-32.025848 19.27113,-63.66314 23.46861,-96.78845447 C 537.07081,-17.495548 534.71387,-30.165248 523.6498,-32.742302 Z"
   style="fill:#33b2d8;fill-opacity:0.63478262;stroke-width:0.85561597" />
	 
</svg>