<?xml version="1.0" encoding="UTF-8" standalone="no"?>
<svg
   xmlns:dc="http://purl.org/dc/elements/1.1/"
   xmlns:cc="http://creativecommons.org/ns#"
   xmlns:rdf="http://www.w3.org/1999/02/22-rdf-syntax-ns#"
   xmlns:svg="http://www.w3.org/2000/svg"
   xmlns="http://www.w3.org/2000/svg"
   xmlns:sodipodi="http://sodipodi.sourceforge.net/DTD/sodipodi-0.dtd"
   xmlns:inkscape="http://www.inkscape.org/namespaces/inkscape"
   version="1.1"
   id="Layer_1"
   x="0px"
   y="0px"
   width="1066.6666"
   height="1092.2667"
   viewBox="0 0 1000 1024"
   enable-background="new 0 0 512 512"
   xml:space="preserve"
   inkscape:version="0.92.1 r15371"
   sodipodi:docname="b-b.svg"><title
   id="title3743">Sinai 357</title><metadata
   id="metadata72"><rdf:RDF><cc:Work
       rdf:about=""><dc:format>image/svg+xml</dc:format><dc:type
         rdf:resource="http://purl.org/dc/dcmitype/StillImage" /><dc:title>Sinai 357</dc:title><dc:date>2017</dc:date><dc:creator><cc:Agent><dc:title>Celeste Claire Horner</dc:title></cc:Agent></dc:creator><dc:publisher><cc:Agent><dc:title>beitdina.net</dc:title></cc:Agent></dc:publisher></cc:Work></rdf:RDF></metadata><defs
   id="defs70" /><sodipodi:namedview
   pagecolor="#ffffff"
   bordercolor="#666666"
   borderopacity="1"
   objecttolerance="10"
   gridtolerance="10"
   guidetolerance="10"
   inkscape:pageopacity="0"
   inkscape:pageshadow="2"
   inkscape:window-width="1152"
   inkscape:window-height="814"
   id="namedview68"
   showgrid="false"
   inkscape:zoom="0.18022936"
   inkscape:cx="-239.26734"
   inkscape:cy="754.49451"
   inkscape:window-x="-8"
   inkscape:window-y="-8"
   inkscape:window-maximized="1"
   inkscape:current-layer="Layer_1" />
   
	<g
   id="Grid"
   transform="matrix(1.9502951,0,0,-1.9942504,5.1344581,1028.3982)">
		<rect
   x="0"
   stroke-miterlimit="10"
   width="512"
   height="512"
   id="rect4"
   y="0"
   style="fill:none;stroke:#a9ccdb;stroke-miterlimit:10" />
		<line
   stroke-miterlimit="10"
   x1="0"
   y1="32"
   x2="512"
   y2="32"
   id="line6"
   style="fill:none;stroke:#a9ccdb;stroke-miterlimit:10" />
		<line
   stroke-miterlimit="10"
   x1="0"
   y1="64"
   x2="512"
   y2="64"
   id="line8"
   style="fill:none;stroke:#a9ccdb;stroke-miterlimit:10" />
		<line
   stroke-miterlimit="10"
   x1="0"
   y1="96"
   x2="512"
   y2="96"
   id="line10"
   style="fill:none;stroke:#a9ccdb;stroke-miterlimit:10" />
		<line
   stroke-miterlimit="10"
   x1="0"
   y1="128"
   x2="512"
   y2="128"
   id="line12"
   style="fill:none;stroke:#a9ccdb;stroke-miterlimit:10" />
		<line
   stroke-miterlimit="10"
   x1="0"
   y1="160"
   x2="512"
   y2="160"
   id="line14"
   style="fill:none;stroke:#a9ccdb;stroke-miterlimit:10" />
		<line
   stroke-miterlimit="10"
   x1="0"
   y1="192"
   x2="512"
   y2="192"
   id="line16"
   style="fill:none;stroke:#a9ccdb;stroke-miterlimit:10" />
		<line
   stroke-miterlimit="10"
   x1="0"
   y1="224"
   x2="512"
   y2="224"
   id="line18"
   style="fill:none;stroke:#a9ccdb;stroke-miterlimit:10" />
		<line
   stroke-miterlimit="10"
   x1="0"
   y1="256"
   x2="512"
   y2="256"
   id="line20"
   style="fill:none;stroke:#a9ccdb;stroke-miterlimit:10" />
		<line
   stroke-miterlimit="10"
   x1="0"
   y1="288"
   x2="512"
   y2="288"
   id="line22"
   style="fill:none;stroke:#a9ccdb;stroke-miterlimit:10" />
		<line
   stroke-miterlimit="10"
   x1="0"
   y1="320"
   x2="512"
   y2="320"
   id="line24"
   style="fill:none;stroke:#a9ccdb;stroke-miterlimit:10" />
		<line
   stroke-miterlimit="10"
   x1="0"
   y1="352"
   x2="512"
   y2="352"
   id="line26"
   style="fill:none;stroke:#a9ccdb;stroke-miterlimit:10" />
		<line
   stroke-miterlimit="10"
   x1="0"
   y1="384"
   x2="512"
   y2="384"
   id="line28"
   style="fill:none;stroke:#a9ccdb;stroke-miterlimit:10" />
		<line
   stroke-miterlimit="10"
   x1="0"
   y1="416"
   x2="512"
   y2="416"
   id="line30"
   style="fill:none;stroke:#a9ccdb;stroke-miterlimit:10" />
		<line
   stroke-miterlimit="10"
   x1="0"
   y1="448"
   x2="512"
   y2="448"
   id="line32"
   style="fill:none;stroke:#ff0000;stroke-miterlimit:10" />
		<line
   stroke-miterlimit="10"
   x1="0"
   y1="480"
   x2="512"
   y2="480"
   id="line34"
   style="fill:none;stroke:#a9ccdb;stroke-miterlimit:10" />
		<line
   stroke-miterlimit="10"
   x1="32"
   y1="0"
   x2="32"
   y2="512"
   id="line36"
   style="fill:none;stroke:#a9ccdb;stroke-miterlimit:10" />
		<line
   stroke-miterlimit="10"
   x1="64"
   y1="0"
   x2="64"
   y2="512"
   id="line38"
   style="fill:none;stroke:#a9ccdb;stroke-miterlimit:10" />
		<line
   stroke-miterlimit="10"
   x1="96"
   y1="0"
   x2="96"
   y2="512"
   id="line40"
   style="fill:none;stroke:#a9ccdb;stroke-miterlimit:10" />
		<line
   stroke-miterlimit="10"
   x1="128"
   y1="0"
   x2="128"
   y2="512"
   id="line42"
   style="fill:none;stroke:#a9ccdb;stroke-miterlimit:10" />
		<line
   stroke-miterlimit="10"
   x1="160"
   y1="0"
   x2="160"
   y2="512"
   id="line44"
   style="fill:none;stroke:#a9ccdb;stroke-miterlimit:10" />
		<line
   stroke-miterlimit="10"
   x1="192"
   y1="0"
   x2="192"
   y2="512"
   id="line46"
   style="fill:none;stroke:#a9ccdb;stroke-miterlimit:10" />
		<line
   stroke-miterlimit="10"
   x1="224"
   y1="0"
   x2="224"
   y2="512"
   id="line48"
   style="fill:none;stroke:#a9ccdb;stroke-miterlimit:10" />
		<line
   stroke-miterlimit="10"
   x1="256"
   y1="0"
   x2="256"
   y2="512"
   id="line50"
   style="fill:none;stroke:#a9ccdb;stroke-miterlimit:10" />
		<line
   stroke-miterlimit="10"
   x1="288"
   y1="0"
   x2="288"
   y2="512"
   id="line52"
   style="fill:none;stroke:#a9ccdb;stroke-miterlimit:10" />
		<line
   stroke-miterlimit="10"
   x1="320"
   y1="0"
   x2="320"
   y2="512"
   id="line54"
   style="fill:none;stroke:#a9ccdb;stroke-miterlimit:10" />
		<line
   stroke-miterlimit="10"
   x1="352"
   y1="0"
   x2="352"
   y2="512"
   id="line56"
   style="fill:none;stroke:#a9ccdb;stroke-miterlimit:10" />
		<line
   stroke-miterlimit="10"
   x1="384"
   y1="0"
   x2="384"
   y2="512"
   id="line58"
   style="fill:none;stroke:#a9ccdb;stroke-miterlimit:10" />
		<line
   stroke-miterlimit="10"
   x1="416"
   y1="0"
   x2="416"
   y2="512"
   id="line60"
   style="fill:none;stroke:#a9ccdb;stroke-miterlimit:10" />
		<line
   stroke-miterlimit="10"
   x1="448"
   y1="0"
   x2="448"
   y2="512"
   id="line62"
   style="fill:none;stroke:#a9ccdb;stroke-miterlimit:10" />
		<line
   stroke-miterlimit="10"
   x1="480"
   y1="0"
   x2="480"
   y2="512"
   id="line64"
   style="fill:none;stroke:#a9ccdb;stroke-miterlimit:10" />
	</g>
	

    
         


<g
   id="g206"
   transform="matrix(0.93749999,0,0,0.93749999,2191.2841,695.76495)"><g
     id="g2991"
     transform="matrix(4.4637923,0,0,4.9975799,-3306.2811,-1632.7003)"><g
       id="g4784" /><flowRoot
       xml:space="preserve"
       id="flowRoot4904"
       style="font-style:normal;font-variant:normal;font-weight:normal;font-stretch:normal;line-height:0.01%;font-family:Arial;-inkscape-font-specification:Arial;text-align:start;letter-spacing:0px;word-spacing:0px;writing-mode:lr-tb;text-anchor:start;fill:#000000;fill-opacity:1;stroke:none"><flowRegion
         id="flowRegion4906"><rect
           id="rect4908"
           width="594.73566"
           height="32.045979"
           x="31.103449"
           y="186.87357"
           style="font-size:28px" /></flowRegion><flowPara
         style="font-size:28px;line-height:1"
         id="flowPara4910"> </flowPara></flowRoot></g></g><path
   sodipodi:nodetypes="ccccscccccccssccccccsccsccsccscccscccccsscccscscccc"
   inkscape:connector-curvature="0"
   id="path3813-5"
   d="m 450.2194,282.87718 c -16.14547,22.4718 -36.0703,30.0712 -56.38154,32.571 -20.15731,5.8823 -77.03742,7.6966 -99.78425,5.9386 -28.1398,-0.027 -60.85809,-10.9889 -85.82488,-0.5938 -11.97385,6.0047 -22.56234,16.1725 -29.31488,28.1748 -5.83211,10.3664 -8.80279,22.1009 -7.33316,33.7032 9.47567,49.0089 30.25101,96.7467 49.45912,159.8717 4.07195,17.5116 8.04479,34.1815 11.99253,50.2617 12.67471,65.6522 36.24792,119.6771 49.35083,177.7034 4.55064,21.8952 9.62408,42.9812 19.60261,61.4261 14.14407,25.8819 36.10326,45.368 65.27052,48.6081 25.47431,1.8629 60.41074,-10.2165 81.61271,-41.1393 13.88286,-28.4881 21.96126,-52.7352 25.68274,-77.0068 2.02646,-13.2167 3.3422,-24.6942 3.62154,-38.7888 0.31691,-15.9964 -0.55355,-34.8548 -0.56089,-54.2482 0.3796,-5.0706 0.54685,-11.3555 0.67291,-16.57 -11.17609,-21.692 -38.74784,-25.479 -54.62985,-42.073 -2.21648,-2.2432 -3.75524,-7.8511 -4.64305,-13.6944 -0.71485,-4.935 -0.68458,-10.6724 -0.13841,-16.425 0.75569,-8.2215 2.32422,-15.8265 5.35472,-22.7085 3.3468,-6.3812 8.56539,-13.3138 14.6473,-19.5119 8.92421,-9.095 19.70636,-16.6076 29.15832,-18.4738 13.14678,-2.3807 27.46223,1.8904 43.32216,11.2864 25.27736,16.9515 42.32415,35.3013 46.59787,56.1206 3.56165,17.3509 -3.40153,36.4166 -6.42757,57.817 -1.04843,7.4358 2.97738,17.8555 3.79616,30.1679 1.75942,17.21942 0.45871,33.97134 -2.41255,50.20581 -3.95303,22.35083 -10.88295,43.72086 -16.90265,63.97976 -6.84751,22.89833 -14.7681,44.68022 -26.08789,60.81244 -15.9897,24.62693 -37.29371,43.79215 -59.88827,58.31113 -16.79025,10.7892 -34.29317,19.01269 -50.85759,25.0051 -14.2489,5.42948 -28.25962,9.5861 -40.62811,12.41626 -14.07362,3.2072 -28.26173,4.9708 -42.99648,5.0835 -16.02692,0.6324 -28.83936,-1.8253 -39.76962,-7.3623 -15.04398,-7.6204 -26.52204,-21.073 -37.9074,-40.3262 -6.55642,-11.6411 -14.91661,-34.7039 -19.99085,-43.768 -39.82924,-118.9416 -74.73056,-250.5135 -111.24039,-354.6769 -9.821731,-27.746 -18.139931,-52.2577 -21.319451,-70.471 -2.1925,-11.026 -3.3441,-21.8272 -3.67545,-32.0658 -1.02756,-14.4378 -0.011,-29.7031 2.82186,-44.6006 1.93754,-10.1885 4.72461,-20.2056 8.28844,-29.6682 5.73338,-15.2236 13.477081,-29.0124 22.927341,-39.7753 11.62675,-12.4101 19.56405,-22.567 28.3585,-30.8228 1.53262,-18.3503 67.49228,-27.0703 36.8963,-22.0645 13.461,-1.7782 29.27493,-5.9117 41.64175,-8.809 31.36825,-7.3488 60.58293,-18.3475 94.56412,-33.2518 37.91454,-17.1129 117.02871,-37.6544 142.87721,-28.6971 7.12023,2.4668 11.95896,5.8526 13.51126,10.1169 6.73316,12.9962 12.21525,30.8741 12.00673,45.8846 -0.3349,10.7268 -28.75646,49.0884 -35.32053,62.1274 z"
   style="fill:#985827;fill-opacity:0.76521738;stroke-width:0.9375" /></svg>